<svg width="20" height="20" fill="none" xmlns="http://www.w3.org/2000/svg"><g clip-path="url(#clip0_580_836)"><path d="M10 5.942l.808 1.908.392.925 1 .083 2.058.175-1.566 1.359-.759.658.225.983.467 2.009-1.767-1.067-.858-.533-.858.516-1.767 1.067.467-2.008.225-.984-.759-.658-1.566-1.358L7.8 8.842l1-.084.392-.925L10 5.942zm0-4.275L7.658 7.192 1.667 7.7l4.55 3.942L4.85 17.5 10 14.392l5.15 3.108-1.367-5.858 4.55-3.942-5.991-.508L10 1.667z" fill="#999"/></g><defs><clipPath id="clip0_580_836"><path fill="#fff" d="M0 0h20v20H0z"/></clipPath></defs></svg>