<svg width="40" height="40" fill="none" xmlns="http://www.w3.org/2000/svg"><g clip-path="url(#clip0_580_1815)"><path d="M20 3.333C10.8 3.333 3.333 10.8 3.333 20c0 9.2 7.467 16.667 16.667 16.667 9.2 0 16.667-7.467 16.667-16.667C36.667 10.8 29.2 3.333 20 3.333zm0 5c2.767 0 5 2.234 5 5 0 2.767-2.233 5-5 5s-5-2.233-5-5c0-2.766 2.233-5 5-5zM20 32a12 12 0 01-10-5.367c.05-3.316 6.667-5.133 10-5.133 3.317 0 9.95 1.817 10 5.133A12 12 0 0120 32z" fill="#999"/></g><defs><clipPath id="clip0_580_1815"><path fill="#fff" d="M0 0h40v40H0z"/></clipPath></defs></svg>