<?xml version="1.0" standalone="no"?>
<!DOCTYPE svg PUBLIC "-//W3C//DTD SVG 1.1//EN" "http://www.w3.org/Graphics/SVG/1.1/DTD/svg11.dtd" >
<svg xmlns="http://www.w3.org/2000/svg">
<metadata>Generated by IcoMoon</metadata>
<defs>
<font id="icomoon" horiz-adv-x="1024">
<font-face units-per-em="1024" ascent="960" descent="-64" />
<missing-glyph horiz-adv-x="1024" />
<glyph unicode="&#x20;" horiz-adv-x="512" d="" />
<glyph unicode="&#xe900;" glyph-name="support" d="M896 438.613c0 234.24-181.76 393.387-384 393.387-200.107 0-384-155.733-384-395.947-25.6-14.507-42.667-41.813-42.667-73.387v-85.333c0-46.933 38.4-85.333 85.333-85.333h42.667v260.267c0 165.12 133.547 298.667 298.667 298.667s298.667-133.547 298.667-298.667v-302.933h-341.333v-85.333h341.333c46.933 0 85.333 38.4 85.333 85.333v52.053c25.173 13.227 42.667 39.253 42.667 69.973v98.133c0 29.867-17.493 55.893-42.667 69.12zM384 362.667c23.564 0 42.667 19.102 42.667 42.667s-19.103 42.667-42.667 42.667c-23.564 0-42.667-19.102-42.667-42.667s19.103-42.667 42.667-42.667zM640 362.667c23.565 0 42.667 19.102 42.667 42.667s-19.102 42.667-42.667 42.667c-23.565 0-42.667-19.102-42.667-42.667s19.102-42.667 42.667-42.667zM768.021 489.387c-20.48 121.6-126.293 214.613-253.867 214.613-129.282 0-268.375-107.093-257.282-275.2 105.387 43.093 184.748 136.96 207.362 251.307 55.893-112.213 170.667-189.44 303.787-190.72z" />
<glyph unicode="&#xe901;" glyph-name="filter" d="M298.653 704h426.667l-213.76-268.8-212.907 268.8zM181.32 720.64c86.187-110.507 245.333-315.307 245.333-315.307v-256c0-23.467 19.2-42.667 42.667-42.667h85.333c23.467 0 42.667 19.2 42.667 42.667v256c0 0 158.72 204.8 244.907 315.307 21.76 28.16 1.707 68.693-33.707 68.693h-593.494c-35.413 0-55.467-40.533-33.707-68.693z" />
<glyph unicode="&#xe902;" glyph-name="ic-delete" d="M682.667 576v-426.667h-341.333v426.667h341.333zM618.667 832h-213.333l-42.667-42.667h-149.333v-85.333h597.333v85.333h-149.333l-42.667 42.667zM768 661.333h-512v-512c0-46.933 38.4-85.333 85.333-85.333h341.333c46.933 0 85.333 38.4 85.333 85.333v512z" />
<glyph unicode="&#xe903;" glyph-name="user" d="M512.005 874.666c-235.52 0-426.668-191.146-426.668-426.666s191.148-426.668 426.668-426.668c235.52 0 426.665 191.148 426.665 426.668s-191.145 426.666-426.665 426.666zM512.005 746.666c70.825 0 128-57.174 128-127.999 0-70.828-57.175-128-128-128-70.828 0-128 57.172-128 128 0 70.825 57.172 127.999 128 127.999zM512.005 140.8c-106.668 0-200.96 54.612-256 137.388 1.28 84.905 170.665 131.412 256 131.412 84.905 0 254.72-46.508 256-131.412-55.040-82.775-149.335-137.388-256-137.388z" />
<glyph unicode="&#xe904;" glyph-name="search" d="M661.333 362.667h-33.707l-11.947 11.52c41.813 48.64 66.987 111.787 66.987 180.48 0 153.173-124.16 277.333-277.333 277.333s-277.333-124.16-277.333-277.333c0-153.173 124.16-277.333 277.333-277.333 68.693 0 131.84 25.173 180.48 66.987l11.52-11.947v-33.707l213.333-212.907 63.573 63.573-212.907 213.333zM405.333 362.667c-106.24 0-192 85.76-192 192s85.76 192 192 192c106.24 0 192-85.76 192-192s-85.76-192-192-192z" />
<glyph unicode="&#xe905;" glyph-name="discord" d="M445.28 456.589c-8.176 0.694-16.371-1.094-23.514-5.133-7.139-4.038-12.896-10.138-16.512-17.504-3.619-7.366-4.925-15.651-3.757-23.773 1.171-8.118 4.768-15.696 10.32-21.741 5.549-6.042 12.794-10.269 20.787-12.125 7.99-1.856 16.358-1.258 24.003 1.722 7.645 2.976 14.214 8.195 18.845 14.97 4.63 6.771 7.107 14.787 7.107 22.992 0.438 10.323-3.242 20.403-10.234 28.013-6.992 7.613-16.72 12.138-27.046 12.579zM578.723 456.589c-8.176 0.694-16.371-1.094-23.514-5.133s-12.899-10.138-16.515-17.504c-3.616-7.366-4.925-15.651-3.754-23.773 1.171-8.118 4.768-15.696 10.317-21.741 5.549-6.042 12.797-10.269 20.787-12.125 7.994-1.856 16.358-1.258 24.006 1.722 7.645 2.976 14.211 8.195 18.842 14.97 4.63 6.771 7.11 14.787 7.11 22.992 0.435 10.323-3.245 20.403-10.237 28.013-6.989 7.613-16.72 12.138-27.043 12.579zM832 688.094c0.026 9.875-1.894 19.658-5.654 28.79-3.757 9.132-9.28 17.433-16.25 24.429s-15.248 12.55-24.368 16.343c-9.117 3.794-18.893 5.753-28.768 5.765h-489.92c-9.875-0.012-19.651-1.972-28.768-5.765s-17.397-9.347-24.367-16.343c-6.969-6.996-12.491-15.298-16.25-24.429s-5.68-18.915-5.655-28.79v-484.753c-0.027-9.875 1.894-19.661 5.652-28.794s9.28-17.437 16.249-24.435c6.97-6.995 15.25-12.55 24.368-16.346s18.895-5.757 28.771-5.77h392c2.48-0.006 4.925 0.563 7.146 1.667 2.221 1.101 4.154 2.707 5.645 4.688s2.499 4.282 2.944 6.717c0.448 2.438 0.32 4.947-0.374 7.328-5.44 18.736-12.48 43.6-12.48 43.6s95.2-89.52 143.040-134.64c2.275-2.154 5.133-3.59 8.218-4.138s6.262-0.179 9.139 1.059c2.877 1.242 5.325 3.296 7.046 5.914s2.64 5.68 2.637 8.813v619.089zM618.88 286.045c-1.613-0.074-3.219 0.234-4.694 0.893-1.472 0.662-2.768 1.661-3.786 2.915l-11.36 13.968c-1.034 1.274-1.75 2.774-2.096 4.378-0.342 1.603-0.304 3.267 0.118 4.851s1.213 3.046 2.307 4.269c1.094 1.222 2.461 2.166 3.99 2.758 20.979 7.354 39.229 20.915 52.32 38.88-43.018-27.114-92.829-41.504-143.68-41.504s-100.662 14.39-143.68 41.504c13.094-17.965 31.341-31.526 52.32-38.88 1.53-0.592 2.899-1.536 3.994-2.758s1.885-2.685 2.304-4.269c0.422-1.584 0.464-3.248 0.118-4.851-0.342-1.603-1.062-3.104-2.096-4.378l-11.36-13.968c-1.014-1.254-2.314-2.253-3.786-2.915-1.472-0.659-3.082-0.966-4.694-0.893-20.89 0.163-41.446 5.261-59.994 14.88s-34.557 23.482-46.726 40.464c1.187 74.141 19.186 147.043 52.64 213.216 29.072 22.579 64.234 35.946 100.96 38.384 0.576 0.013 1.142-0.102 1.67-0.336 0.525-0.23 0.992-0.576 1.37-1.008 0.438-0.483 0.746-1.069 0.896-1.702 0.15-0.637 0.138-1.299-0.038-1.926s-0.509-1.2-0.966-1.667c-0.458-0.464-1.024-0.806-1.651-0.992-31.213-8.934-60.285-24.128-85.44-44.656 44.186 24.24 93.766 36.944 144.16 36.944 50.397 0 99.978-12.704 144.16-36.944-25.155 20.528-54.224 35.722-85.44 44.656-0.624 0.186-1.194 0.528-1.651 0.992-0.458 0.467-0.787 1.040-0.963 1.667s-0.192 1.29-0.042 1.926c0.15 0.634 0.458 1.219 0.896 1.702 0.378 0.432 0.848 0.778 1.373 1.008 0.525 0.234 1.094 0.349 1.667 0.336 36.73-2.438 71.888-15.805 100.96-38.384 33.456-66.173 51.453-139.075 52.64-213.216-12.17-16.982-28.179-30.845-46.726-40.464-18.544-9.619-39.101-14.717-59.994-14.88z" />
<glyph unicode="&#xe906;" glyph-name="instagram" d="M712 608c22.093 0 40 17.907 40 40 0 22.092-17.907 40-40 40s-40-17.908-40-40c0-22.093 17.907-40 40-40zM512 576c-33.942-0.019-66.49-13.51-90.49-37.51s-37.491-56.547-37.51-90.49c0-25.315 7.507-50.064 21.571-71.114s34.058-37.456 57.446-47.142c23.389-9.69 49.123-12.224 73.955-7.283 24.829 4.938 47.635 17.13 65.536 35.030s30.093 40.707 35.030 65.536c4.941 24.832 2.406 50.566-7.283 73.955-9.686 23.389-26.093 43.382-47.142 57.446s-45.798 21.571-71.114 21.571zM512 640c37.974 0 75.094-11.261 106.669-32.358s56.182-51.082 70.717-86.166c14.531-35.082 18.333-73.686 10.925-110.931s-25.696-71.456-52.547-98.307c-26.851-26.851-61.062-45.139-98.307-52.547s-75.85-3.606-110.931 10.925c-35.085 14.534-65.069 39.142-86.166 70.717s-32.358 68.694-32.358 106.669c0.026 50.915 20.259 99.738 56.262 135.738 36 36.003 84.822 56.237 135.738 56.262zM832 608v-320c0-42.435-16.858-83.133-46.864-113.136-30.003-30.006-70.701-46.864-113.136-46.864h-320c-42.435 0-83.131 16.858-113.137 46.864-30.006 30.003-46.863 70.701-46.863 113.136v320c0 42.435 16.857 83.131 46.863 113.137s70.702 46.863 113.137 46.863h320c42.435 0 83.133-16.857 113.136-46.863 30.006-30.006 46.864-70.702 46.864-113.137zM896 608c0 59.409-23.6 116.384-65.61 158.392-42.006 42.008-98.982 65.608-158.39 65.608h-320c-59.409 0-116.384-23.6-158.392-65.608s-65.608-98.983-65.608-158.392v-320c0-59.408 23.6-116.384 65.608-158.39 42.008-42.010 98.983-65.61 158.392-65.61h320c59.408 0 116.384 23.6 158.39 65.61 42.010 42.006 65.61 98.982 65.61 158.39v320z" />
<glyph unicode="&#xe907;" glyph-name="arrow-right" d="M366.507 252.16l195.413 195.84-195.413 195.84 60.16 60.16 256-256-256-256z" />
<glyph unicode="&#xe908;" glyph-name="timer" d="M640 917.333h-256v-85.333h256zM469.333 362.667h85.333v256h-85.333zM811.947 644.693l60.587 60.587c-18.443 22.025-38.135 41.716-59.426 59.561l-0.734 0.599-60.587-60.587c-65.077 52.373-148.727 84.062-239.778 84.062-212.077 0-384-171.923-384-384s171.923-384 384-384c212.077 0 384 171.923 384 384 0 91.051-31.69 174.701-84.641 240.521l0.579-0.744zM512 106.667c-164.949 0-298.667 133.718-298.667 298.667s133.718 298.667 298.667 298.667c164.949 0 298.667-133.718 298.667-298.667v0c0-0.063 0-0.138 0-0.213 0-164.831-133.622-298.453-298.453-298.453-0.075 0-0.15 0-0.225 0h0.011z" />
<glyph unicode="&#xe909;" glyph-name="login" d="M469.333 661.333l-59.733-59.733 110.933-110.933h-435.2v-85.333h435.2l-110.933-110.933 59.733-59.733 213.333 213.333zM853.333 149.333h-341.333v-85.333h341.333c47.070 0.145 85.188 38.264 85.333 85.319v597.347c-0.145 47.070-38.264 85.188-85.319 85.333h-341.347v-85.333h341.333z" />
<glyph unicode="&#xe90a;" glyph-name="menu" d="M128 192h768v85.333h-768zM128 405.333h768v85.333h-768zM128 704v-85.333h768v85.333z" />
<glyph unicode="&#xe90b;" glyph-name="star" d="M512 223.147l263.68-159.147-69.973 299.947 232.96 201.813-306.773 26.027-119.893 282.88-119.893-282.88-306.773-26.027 232.96-201.813-69.973-299.947z" />
<glyph unicode="&#xe90c;" glyph-name="star-border" d="M938.667 565.76l-306.773 26.453-119.893 282.453-119.893-282.88-306.773-26.027 232.96-201.813-69.973-299.947 263.68 159.147 263.68-159.147-69.547 299.947zM512 302.933l-160.427-96.853 42.667 182.613-141.653 122.88 186.88 16.213 72.533 171.947 72.96-172.373 186.88-16.213-141.653-122.88 42.667-182.613z" />
<glyph unicode="&#xe90d;" glyph-name="star-half" d="M938.667 565.76l-306.773 26.453-119.893 282.453-119.893-282.88-306.773-26.027 232.96-201.813-69.973-299.947 263.68 159.147 263.68-159.147-69.547 299.947zM512 302.933v396.8l72.96-172.373 186.88-16.213-141.653-122.88 42.667-182.613z" />
<glyph unicode="&#xe90e;" glyph-name="play" d="M426.667 256v384l256-192z" />
<glyph unicode="&#xe90f;" glyph-name="minus" d="M768 405.333h-512c-23.564 0-42.667 19.103-42.667 42.667s19.103 42.667 42.667 42.667v0h512c23.564 0 42.667-19.103 42.667-42.667s-19.103-42.667-42.667-42.667v0z" />
<glyph unicode="&#xe910;" glyph-name="comment-border" d="M853.333 227.413l-49.92 49.92h-632.747v512h682.667zM853.333 874.667h-682.667c-47.070-0.145-85.188-38.264-85.333-85.319v-512.014c0.145-47.070 38.264-85.188 85.319-85.333h597.347l170.667-170.667v768c-0.145 47.070-38.264 85.188-85.319 85.333h-0.014z" />
<glyph unicode="&#xe911;" glyph-name="time" d="M511.573 874.667c-235.458-0.243-426.24-191.175-426.24-426.666 0-235.641 191.025-426.667 426.667-426.667s426.667 191.025 426.667 426.667v0c0 235.642-191.025 426.667-426.667 426.667-0.15 0-0.3 0-0.45 0h0.023zM512 106.667c-188.513 0-341.333 152.82-341.333 341.333s152.82 341.333 341.333 341.333c188.513 0 341.333-152.82 341.333-341.333v0c0-188.513-152.82-341.333-341.333-341.333v0zM533.333 661.333h-64v-256l224-134.4 32 52.48-192 113.92z" />
<glyph unicode="&#xe912;" glyph-name="video" d="M896 832h-768c-0.089 0-0.194 0.001-0.299 0.001-46.963 0-85.035-38.071-85.035-85.035 0-0.105 0-0.21 0.001-0.315v0.016-512c0-47.128 38.205-85.333 85.333-85.333v0h213.333v-85.333h341.333v85.333h213.333c46.944 0.242 84.907 38.354 84.907 85.332 0 0 0 0.001 0 0.001v0l0.427 512c0 47.128-38.205 85.333-85.333 85.333v0zM896 234.667h-768v512h768zM682.667 490.667l-298.667-170.667v341.333z" />
<glyph unicode="&#xe913;" glyph-name="telegram" d="M507.605 289.067l-76.8 61.781zM756.907 671.36l-543.573-204.8c-8.726-3.369-14.803-11.689-14.803-21.429 0-10.435 6.976-19.241 16.519-22.008l0.162-0.040 131.925-37.035 313.515 191.147c0.7 0.459 1.559 0.733 2.481 0.733 2.521 0 4.565-2.044 4.565-4.565 0-1.36-0.594-2.58-1.537-3.417l-0.005-0.004-235.264-218.965 205.483-165.419c6.357-5.443 14.677-8.755 23.772-8.755 17.739 0 32.534 12.602 35.922 29.341l0.040 0.235 85.333 444.416c0.212 1.046 0.334 2.248 0.334 3.478 0 10.109-8.195 18.304-18.304 18.304-2.36 0-4.616-0.447-6.687-1.26l0.124 0.043zM507.605 289.067l3.669-2.944z" />
<glyph unicode="&#xe914;" glyph-name="plus" d="M768 405.333h-213.333v-213.333c0-23.564-19.103-42.667-42.667-42.667s-42.667 19.103-42.667 42.667v0 213.333h-213.333c-23.564 0-42.667 19.103-42.667 42.667s19.103 42.667 42.667 42.667v0h213.333v213.333c0 23.564 19.103 42.667 42.667 42.667s42.667-19.103 42.667-42.667v0-213.333h213.333c23.564 0 42.667-19.103 42.667-42.667s-19.103-42.667-42.667-42.667v0z" />
<glyph unicode="&#xe915;" glyph-name="chip" d="M844.8 836.992c-88.932 76.475-205.502 123.039-332.947 123.039-282.77 0-512-229.23-512-512s229.23-512 512-512c155.398 0 294.626 69.23 388.525 178.531l0.571 0.68c77.012 88.762 123.944 205.433 123.944 333.065 0 155.448-69.617 294.636-179.375 388.087l-0.719 0.597zM944.043 299.392l-156.459 53.931c9.947 28.178 15.694 60.671 15.694 94.507s-5.747 66.329-16.319 96.557l0.625-2.051 156.331 53.803c15.585-44.242 24.589-95.256 24.589-148.373s-9.004-104.132-25.569-151.6l0.98 3.226zM952.832 600.533v0zM856.32 747.691l-124.587-108.203c-9.431 10.745-19.301 20.507-29.816 29.538l-0.392 0.329c-36.654 31.578-81.831 54.281-131.609 64.245l-1.852 0.309 31.403 161.451c80.987-15.974 151.882-51.474 210.012-101.414l-0.604 0.507c17.131-14.672 32.632-29.956 47.007-46.256l0.438-0.506zM356.608 877.184c18.963 7.108 41.863 13.542 65.42 18.14l2.846 0.463 31.189-161.877c-65.759-13.040-122.099-46.767-163.378-93.996l-0.291-0.34-124.715 108.459c50.13 57.259 113.663 101.555 185.77 128.133l3.158 1.019zM79.872 596.523l156.459-53.931c-9.946-28.178-15.692-60.671-15.692-94.507s5.746-66.329 16.316-96.558l-0.624 2.051-156.501-53.845c-15.576 44.249-24.575 95.271-24.575 148.395s8.999 104.146 25.555 151.625l-0.981-3.23zM167.424 148.096l124.843 108.416c9.44-10.745 19.324-20.507 29.855-29.536l0.395-0.331c36.637-31.535 81.784-54.207 131.524-64.16l1.852-0.309-31.573-162.133c-80.978 16.172-151.827 51.801-209.917 101.834l0.595-0.501c-17.21 14.672-32.766 29.958-47.188 46.27l-0.428 0.493zM667.307 18.347c-18.804-7.066-41.568-13.509-64.976-18.163l-2.906-0.482-31.488 162.133c65.785 13.055 122.142 46.813 163.42 94.080l0.292 0.342 124.757-108.501c-50.178-57.346-113.765-101.724-185.936-128.385l-3.163-1.023zM350.165 775.211c0-15.27-12.378-27.648-27.648-27.648s-27.648 12.378-27.648 27.648c0 15.27 12.378 27.648 27.648 27.648s27.648-12.378 27.648-27.648zM161.536 447.488c0-15.27-12.378-27.648-27.648-27.648s-27.648 12.378-27.648 27.648c0 15.27 12.378 27.648 27.648 27.648s27.648-12.378 27.648-27.648zM351.019 120.277c0-15.27-12.378-27.648-27.648-27.648s-27.648 12.378-27.648 27.648c0 15.27 12.378 27.648 27.648 27.648s27.648-12.378 27.648-27.648zM729.173 120.747c0-15.27-12.378-27.648-27.648-27.648s-27.648 12.378-27.648 27.648c0 15.27 12.378 27.648 27.648 27.648s27.648-12.378 27.648-27.648zM917.803 448.469c0-15.27-12.378-27.648-27.648-27.648s-27.648 12.378-27.648 27.648c0 15.27 12.378 27.648 27.648 27.648s27.648-12.378 27.648-27.648zM728.32 775.723c0-15.27-12.378-27.648-27.648-27.648s-27.648 12.378-27.648 27.648c0 15.27 12.378 27.648 27.648 27.648s27.648-12.378 27.648-27.648z" />
<glyph unicode="&#xe916;" glyph-name="lines" d="M658.286 960c-40.396 0-73.143-32.747-73.143-73.143v0-877.714c0-40.396 32.747-73.143 73.143-73.143v0c40.396 0 73.143 32.747 73.143 73.143v0 877.714c0 40.396-32.747 73.143-73.143 73.143v0zM365.714 960c-40.396 0-73.143-32.747-73.143-73.143v0-877.714c0-40.396 32.747-73.143 73.143-73.143v0c40.396 0 73.143 32.747 73.143 73.143v0 877.714c0 40.396-32.747 73.143-73.143 73.143v0zM950.857 813.714c-40.396 0-73.143-32.747-73.143-73.143v0-585.143c0-40.396 32.747-73.143 73.143-73.143v0c40.396 0 73.143 32.747 73.143 73.143v0 585.143c0 40.396-32.747 73.143-73.143 73.143v0zM73.143 813.714c-40.396 0-73.143-32.747-73.143-73.143v0-585.143c0-40.396 32.747-73.143 73.143-73.143v0c40.396 0 73.143 32.747 73.143 73.143v0 585.143c0 40.396-32.747 73.143-73.143 73.143v0z" />
<glyph unicode="&#xe917;" glyph-name="skype" d="M796.203 372.992c6.118 22.373 9.633 48.062 9.633 74.571 0 162.074-131.387 293.461-293.461 293.461-26.51 0-52.199-3.515-76.626-10.105l2.054 0.472c-22.225 13.365-49.049 21.271-77.719 21.271-84.289 0-152.619-68.33-152.619-152.619 0-28.67 7.906-55.494 21.656-78.411l-0.385 0.692c-6.118-22.373-9.633-48.062-9.633-74.571 0-162.074 131.387-293.461 293.461-293.461 26.51 0 52.199 3.515 76.626 10.105l-2.054-0.472c22.225-13.365 49.049-21.271 77.719-21.271 84.289 0 152.619 68.33 152.619 152.619 0 28.67-7.906 55.494-21.656 78.411l0.385-0.692zM642.816 338.859c-7.274-13.006-17.148-23.739-28.99-31.794l-0.322-0.206c-13.047-8.661-28.294-15.288-44.653-18.984l-0.915-0.174c-17.076-4.070-36.682-6.404-56.833-6.404-0.48 0-0.959 0.001-1.438 0.004h0.074c-0.881-0.014-1.921-0.022-2.962-0.022-20.356 0-40.011 3.001-58.547 8.585l1.435-0.371c-16.857 5.085-31.524 12.695-44.412 22.519l0.337-0.247c-11.394 8.783-20.725 19.64-27.551 32.066l-0.267 0.531c-1.972 3.579-3.859 7.805-5.403 12.193l-0.186 0.607c-0.388 1.11-0.613 2.389-0.613 3.721 0 2.6 0.855 4.999 2.298 6.934l-0.022-0.031c2.262 3.166 5.925 5.205 10.064 5.205 0.017 0 0.034 0 0.051 0h47.186c5.401-0.092 9.96-3.596 11.622-8.445l0.026-0.088c3.031-7.737 7.66-14.272 13.515-19.453l0.053-0.046c6.523-5.702 14.166-10.326 22.529-13.484l0.511-0.169c9.576-3.489 20.63-5.507 32.156-5.507 1.040 0 2.077 0.016 3.11 0.049l-0.151-0.004c1.498-0.113 3.244-0.177 5.005-0.177 15.328 0 29.521 4.86 41.121 13.124l-0.217-0.147c9.856 7.028 16.314 18.271 16.724 31.041l0.002 0.063c0.002 0.138 0.003 0.301 0.003 0.465 0 7.859-2.77 15.071-7.388 20.713l0.046-0.058c-4.54 5.372-10.262 9.601-16.776 12.309l-0.291 0.107c-6.012 2.494-13.153 4.688-20.537 6.219l-0.797 0.138c-7.637 1.621-15.872 3.115-24.448 4.267-15.147 2.645-31.189 5.589-47.744 8.533-16.205 2.99-30.667 8.087-43.978 15.080l0.842-0.403c-12.581 6.633-22.933 15.96-30.575 27.269l-0.187 0.294c-7.422 13.426-11.79 29.435-11.79 46.464 0 14.748 3.276 28.73 9.14 41.26l-0.251-0.598c6.426 12.499 15.032 23.001 25.417 31.388l0.183 0.143c11.661 9.315 25.307 16.759 40.134 21.588l0.912 0.257c15.864 5.179 34.119 8.166 53.072 8.166 0.842 0 1.682-0.006 2.522-0.018l-0.127 0.001c2.464 0.141 5.347 0.221 8.249 0.221 33.566 0 64.621-10.749 89.911-28.991l-0.454 0.311c15.342-11.887 26.921-27.958 33.082-46.501l0.198-0.688c0.368-1.096 0.58-2.358 0.58-3.669 0-6.568-5.32-11.894-11.885-11.904h-45.569c-5.501 0.069-10.111 3.806-11.5 8.875l-0.020 0.085v0.299c-2.206 7.454-6.202 13.808-11.499 18.796l-0.021 0.020c-5.682 5.143-12.512 9.134-20.049 11.541l-0.388 0.107c-8.065 2.535-17.339 3.995-26.954 3.995-0.784 0-1.566-0.010-2.346-0.029l0.116 0.002c-0.614 0.015-1.336 0.024-2.061 0.024-13.648 0-26.584-3.044-38.168-8.49l0.549 0.232c-12.468-5.753-20.965-18.147-20.965-32.525 0-0.371 0.006-0.74 0.017-1.108l-0.001 0.054c-0.003-0.156-0.004-0.341-0.004-0.525 0-8.99 3.51-17.159 9.235-23.213l-0.015 0.016c5.839-5.852 12.977-10.406 20.944-13.194l0.389-0.118c7.503-2.836 16.485-5.334 25.739-7.054l1.013-0.156c9.6-1.835 19.627-3.669 29.867-5.419 14.592-2.688 29.867-5.675 44.885-8.96 14.782-3.188 27.873-8.226 39.883-14.961l-0.715 0.369c11.105-6.199 20.275-14.605 27.174-24.689l0.175-0.271c6.407-10.459 10.202-23.12 10.202-36.668 0-1.255-0.033-2.502-0.097-3.741l0.007 0.173c0.008-0.449 0.012-0.979 0.012-1.51 0-16.556-4.158-32.142-11.487-45.769l0.254 0.516z" />
<glyph unicode="&#xe918;" glyph-name="chart" d="M149.333 171.093l256 256.427 170.667-170.667 362.667 407.893-60.16 60.16-302.507-340.053-170.667 170.667-320-320.427z" />
<glyph unicode="&#xe919;" glyph-name="arrow-left" d="M657.493 252.16l-195.413 195.84 195.413 195.84-60.16 60.16-256-256 256-256z" />
<glyph unicode="&#xe91a;" glyph-name="check-circle" d="M707.84 636.587l-281.173-281.173-153.173 152.747-60.16-60.16 213.333-213.333 341.333 341.333zM512 874.667c-235.641 0-426.667-191.025-426.667-426.667s191.025-426.667 426.667-426.667c235.641 0 426.667 191.025 426.667 426.667v0c0 235.641-191.025 426.667-426.667 426.667v0zM512 106.667c-188.513 0-341.333 152.82-341.333 341.333s152.82 341.333 341.333 341.333c188.513 0 341.333-152.82 341.333-341.333v0c0-188.513-152.82-341.333-341.333-341.333v0z" />
<glyph unicode="&#xe91b;" glyph-name="twitch" d="M213.333 651.051v-433.451h149.333v-81.323h81.493l81.408 81.323h122.197l162.944 162.517v379.349h-556.672zM308.267 705.323h448v-298.112l-95.061-94.848h-149.333l-81.408-81.067v81.067h-122.197zM457.728 596.821h54.272v-162.56h-54.272zM607.019 596.821h54.315v-162.56h-54.315z" />
<glyph unicode="&#xe91c;" glyph-name="youtube" d="M850.731 448.725v0c-0.512 53.931-3.328 171.904-48.512 206.251s-290.133 34.645-290.133 34.645-244.651 0-290.133-34.688-48-152.363-48.512-206.251v0-1.408c0.512-53.931 3.371-171.904 48.512-206.251s290.133-34.688 290.133-34.688 244.651 0 290.133 34.645 48 152.32 48.512 206.251v0c0 0.213 0 0.469 0 0.725s0 0.555 0 0.768zM450.261 338.645v218.752l189.44-109.355z" />
<glyph unicode="&#xe91d;" glyph-name="vk" d="M726.912 416.299c-10.496 13.269-7.509 19.2 0 31.061 35.56 46.657 67.61 99.5 93.813 155.622l2.229 5.317c4.267 14.805 0 25.6-21.333 25.6h-71.381c-0.724 0.061-1.567 0.096-2.418 0.096-13.037 0-24.164-8.178-28.531-19.684l-0.070-0.21c-23.68-54.63-52.971-101.719-88.090-143.772l0.751 0.924c-16.512-16.213-24.192-21.333-33.195-21.333-4.267 0-11.349 5.205-11.349 20.011v138.368c0 17.792-5.077 25.6-20.053 25.6h-111.829c-0.316 0.021-0.684 0.033-1.055 0.033-9.062 0-16.474-7.063-17.033-15.984l-0.002-0.049c0-17.067 25.6-20.736 28.245-68.267v-102.784c0-22.528-4.267-26.709-13.184-26.709-24.192 0-82.859 86.997-117.589 186.624-6.997 19.285-13.867 27.136-32.085 27.136h-71.125c-20.139 0-24.405-9.387-24.405-19.84 0-18.56 24.192-110.379 112.427-231.893 47.117-72.873 125.747-121.895 216.139-127.744l0.821-0.043c45.269 0 50.816 9.984 50.816 27.136 0 79.189-4.267 86.656 18.603 86.656 10.496 0 28.629-5.205 70.912-45.184 48.299-47.403 56.277-68.608 83.285-68.608h71.125c20.267 0 30.549 9.984 24.619 29.653-13.568 41.515-104.96 126.635-109.056 132.267z" />
<glyph unicode="&#xe91e;" glyph-name="viber" d="M648.235 179.499l-0.384 0.555c-75.619 29.288-140.931 67.405-199.019 114.136l1.429-1.112c-129.195 105.643-169.728 245.461-191.787 289.323-12.8 41.6 27.477 82.048 64.384 103.595h0.384c5.322 3.594 11.881 5.737 18.94 5.737 11.081 0 20.929-5.28 27.164-13.462l0.061-0.083c23.083-26.954 44.123-57.026 62.085-89.056l1.445-2.805c3.912-6.323 6.23-13.991 6.23-22.2 0-12.203-5.123-23.21-13.336-30.987l-0.020-0.018-23.211-19.2c-6.348-6.481-10.266-15.364-10.266-25.162 0-0.995 0.040-1.981 0.12-2.956l-0.008 0.128c23.175-80.307 83.801-142.777 161.237-168.081l1.75-0.495c0.796-0.068 1.722-0.106 2.657-0.106 9.649 0 18.338 4.106 24.417 10.666l0.020 0.022 18.56 24.021c7.273 8.442 17.977 13.754 29.922 13.754 7.992 0 15.428-2.378 21.64-6.465l-0.149 0.092c33.503-19.763 62.512-41.519 88.88-66.072l-0.304 0.28c7.89-6.756 12.859-16.727 12.859-27.859 0-7.16-2.056-13.84-5.609-19.482l0.089 0.152v-0.299c-18.176-33.067-50.091-69.12-84.565-69.12-0.003 0-0.006 0-0.009 0-5.585 0-10.952 0.937-15.95 2.663l0.343-0.103zM745.259 442.496c-1.152 162.944-106.155 251.733-233.6 252.757-7.069 0-12.8 5.731-12.8 12.8s5.731 12.8 12.8 12.8v0c142.507-0.939 257.109-102.784 258.475-278.357v0c0.009-0.18 0.015-0.391 0.015-0.603 0-6.739-5.463-12.203-12.203-12.203-0.125 0-0.25 0.002-0.374 0.006h0.018c-0.083-0.002-0.18-0.003-0.278-0.003-6.669 0-12.075 5.406-12.075 12.075 0 0.256 0.008 0.511 0.024 0.763l-0.002-0.035zM679.339 469.504c0.275 3.372 0.431 7.3 0.431 11.264 0 81.24-65.775 147.118-146.975 147.285h-0.016c-6.699 0.472-11.955 6.022-11.955 12.8 0 7.086 5.744 12.83 12.83 12.83 0.308 0 0.613-0.011 0.915-0.032l-0.041 0.002c94.309-1.466 170.197-78.261 170.197-172.78 0-4.271-0.155-8.505-0.459-12.699l0.033 0.562c0.008-0.167 0.013-0.363 0.013-0.56 0-6.622-5.368-11.989-11.989-11.989-0.125 0-0.249 0.002-0.373 0.006h0.018c-0.124-0.005-0.271-0.007-0.417-0.007-6.763 0-12.245 5.482-12.245 12.245 0 0.318 0.012 0.633 0.036 0.945l-0.003-0.041zM615.339 490.837c-2.133 43.989-22.059 65.408-63.019 67.797-6.788 0.362-12.156 5.954-12.156 12.8 0 7.079 5.738 12.817 12.817 12.817 0.233 0 0.464-0.006 0.693-0.018l-0.032 0.001c0.371 0.006 0.809 0.009 1.248 0.009 47.293 0 85.632-38.339 85.632-85.632 0-2.376-0.097-4.729-0.287-7.056l0.020 0.306c0.043-0.386 0.068-0.833 0.068-1.285 0-6.763-5.482-12.245-12.245-12.245-0.129 0-0.257 0.002-0.385 0.006h0.019c-0.141-0.006-0.306-0.009-0.471-0.009-6.692 0-12.117 5.425-12.117 12.117 0 0.078 0.001 0.156 0.002 0.234v-0.012z" />
<glyph unicode="&#xe91f;" glyph-name="whatsapp" d="M514.091 190.464c-0.031 0-0.067 0-0.104 0-29.254 0-57.558 4.066-84.378 11.663l2.177-0.527c-29.887 8.402-56.011 20.055-79.952 34.894l1.318-0.76-126.891-44.544c-1.252-0.46-2.697-0.725-4.204-0.725-0.022 0-0.044 0-0.066 0h0.003c-1.643 0.004-3.211 0.317-4.652 0.883l0.087-0.030c-3.153 1.194-5.643 3.531-7.008 6.493l-0.032 0.078c-0.699 1.491-1.107 3.237-1.107 5.079 0 1.612 0.313 3.151 0.881 4.56l-0.029-0.082 47.232 121.088c-14.756 22.245-26.985 47.908-35.371 75.252l-0.555 2.102c-7.765 25.133-12.239 54.027-12.245 83.965v0.003c0 0.027 0 0.060 0 0.092 0 21.328 2.253 42.13 6.534 62.181l-0.347-1.942c4.527 21.45 10.645 40.251 18.488 58.123l-0.739-1.888c8.501 19.51 17.903 36.218 28.762 51.838l-0.644-0.979c11.482 16.549 23.728 31.043 37.205 44.288l0.043 0.042c13.482 13.236 28.24 25.27 44.040 35.869l1.102 0.696c14.861 10.008 31.89 19.254 49.789 26.848l2.009 0.757c16.242 6.974 35.403 12.996 55.265 17.106l1.994 0.345c18.443 3.875 39.638 6.096 61.351 6.101h0.303c0.027 0 0.059 0 0.090 0 29.816 0 58.649-4.207 85.939-12.059l-2.19 0.539c29.427-8.372 55.131-19.872 78.717-34.467l-1.32 0.76c18.428-11.355 34.424-23.592 49.080-37.247l-0.184 0.169c14.34-13.366 27.22-27.924 38.611-43.633l0.6-0.868c10.542-14.531 20.251-31.040 28.331-48.459l0.768-1.845c7.23-15.41 13.624-33.555 18.225-52.403l0.421-2.040c4.167-16.804 6.953-36.341 7.747-56.391l0.018-0.569c0.135-3.333 0.212-7.245 0.212-11.175 0-16.452-1.35-32.589-3.944-48.306l0.233 1.71c-3.533-21.524-8.815-40.664-15.871-58.922l0.681 2.005c-7.995-20.906-17.15-38.843-27.937-55.632l0.715 1.19c-14.699-22.981-31.402-42.845-50.351-60.311l-0.209-0.191c-18.202-16.745-38.72-31.439-60.902-43.451l-1.604-0.795c-20.325-11.077-43.886-20.387-68.64-26.714l-2.144-0.465c-22.606-5.872-48.559-9.248-75.3-9.259h-0.007zM425.131 639.659v0c-9.617-1.654-18.221-4.857-25.967-9.371l0.367 0.198c-7.843-4.552-14.514-10.148-20.092-16.703l-0.089-0.108c-5.472-6.4-9.934-13.867-13.013-22.014l-0.171-0.514c-2.894-7.591-4.57-16.369-4.57-25.538 0-0.292 0.002-0.583 0.005-0.874v0.044c12.879-57.542 41.028-107.189 79.953-146.044l0.004-0.004c39.92-38.422 90.459-66.082 146.783-78.148l1.996-0.358h0.811c0.038 0 0.082 0 0.126 0 9.492 0 18.586 1.705 26.992 4.825l-0.537-0.174c8.706 3.157 16.23 7.493 22.834 12.907l-0.135-0.107c6.749 5.532 12.424 12.064 16.878 19.418l0.189 0.336c4.326 7.182 7.541 15.567 9.149 24.511l0.067 0.449v24.96c0 0.002 0 0.004 0 0.006 0 2.452-0.716 4.737-1.949 6.657l0.029-0.049c-1.275 1.976-3.023 3.546-5.088 4.575l-0.074 0.033c-0.299 0-31.488 15.147-50.645 24.96-3.894 1.991-8.494 3.158-13.366 3.158-0.056 0-0.112 0-0.168 0h0.009c-9.959-0.486-19.075-3.718-26.716-8.946l0.177 0.114c-7.567-4.825-14.145-10.087-20.109-15.971l0.013 0.013c-10.44 3.977-19.38 8.483-27.776 13.774l0.64-0.377c-8.992 5.648-16.807 11.713-23.97 18.461l0.077-0.072c-6.821 6.98-12.992 14.656-18.377 22.891l-0.353 0.576c-5.021 7.634-9.605 16.399-13.298 25.618l-0.356 1.006c7.71 7.432 14.293 15.96 19.516 25.348l0.281 0.55c3.372 5.283 5.374 11.724 5.374 18.632 0 5.264-1.163 10.257-3.245 14.736l0.090-0.216c-10.325 19.669-25.6 49.707-25.6 49.749-1.107 2.080-2.702 3.77-4.638 4.96l-0.056 0.032c-1.895 1.176-4.194 1.874-6.655 1.877h-25.601z" />
<glyph unicode="&#xe920;" glyph-name="education" d="M512 832l-469.333-256 170.667-93.013v-256l298.667-162.987 298.667 162.987v256l85.333 46.507v-294.827h85.333v341.333l-469.333 256zM802.987 576l-290.987-158.72-290.987 158.72 290.987 158.72 290.987-158.72zM725.333 277.76l-213.333-116.48-213.333 116.48v158.72l213.333-116.48 213.333 116.48v-158.72z" />
<glyph unicode="&#xe921;" glyph-name="fire" d="M831.147 433.067c-66.987 174.080-305.493 183.467-247.893 436.48 0.443 1.624 0.698 3.488 0.698 5.412 0 11.782-9.551 21.333-21.333 21.333-4.214 0-8.143-1.222-11.451-3.33l0.086 0.051c-124.979-68.792-208.255-199.624-208.255-349.906 0-59.519 13.062-115.988 36.477-166.695l-1.022 2.468c0.88-2.248 1.39-4.851 1.39-7.573 0-11.782-9.551-21.333-21.333-21.333-4.505 0-8.684 1.396-12.127 3.78l0.071-0.046c-49.797 39.244-81.477 99.557-81.477 167.269 0 12.504 1.080 24.756 3.153 36.667l-0.183-1.269c0.094 0.754 0.148 1.626 0.148 2.512 0 11.782-9.551 21.333-21.333 21.333-7.303 0-13.749-3.67-17.595-9.266l-0.047-0.072c-36.879-59.504-58.735-131.679-58.735-208.959 0-5.289 0.102-10.555 0.305-15.795l-0.023 0.754c8.769-163.615 130.76-296.28 288.602-321.449l1.958-0.257c18.624-3.359 40.060-5.28 61.945-5.28 89.53 0 171.553 32.147 235.153 85.528l-0.565-0.461c58.57 54.080 95.124 131.254 95.124 216.966 0 40.066-7.987 78.266-22.457 113.095l0.719-1.954zM435.2 218.453c50.25 10.661 89.408 48.821 101.36 97.657l0.187 0.903c14.080 61.013-40.96 120.747-3.84 217.173 14.080-79.787 139.52-129.707 139.52-216.747 3.413-107.947-113.493-200.533-237.227-98.987z" />
<glyph unicode="&#xe922;" glyph-name="views" d="M512 768c-212.119-0.13-393.612-131.12-468.129-316.605l-1.205-3.395c75.632-188.944 257.181-319.975 469.333-319.975s393.701 131.032 468.131 316.581l1.202 3.394c-75.722 188.88-257.214 319.87-469.317 320h-0.016zM512 234.667c-117.821 0-213.333 95.513-213.333 213.333s95.513 213.333 213.333 213.333c117.821 0 213.333-95.513 213.333-213.333v0c0-117.821-95.513-213.333-213.333-213.333v0zM512 576c-70.692 0-128-57.308-128-128s57.308-128 128-128c70.692 0 128 57.308 128 128v0c0 70.692-57.308 128-128 128v0z" />
<glyph unicode="&#xe923;" glyph-name="comment" d="M938.24 789.333c0 0 0 0.001 0 0.001 0 46.978-37.962 85.090-84.884 85.332h-682.69c-47.070-0.145-85.188-38.264-85.333-85.319v-512.014c0.145-47.070 38.264-85.188 85.319-85.333h597.347l170.667-170.667z" />
<glyph unicode="&#xe924;" glyph-name="bookmark-border" d="M725.333 832h-426.667c-46.944-0.242-84.907-38.354-84.907-85.332 0 0 0-0.001 0-0.001v0l-0.427-682.667 298.667 128 298.667-128v682.667c-0.145 47.070-38.264 85.188-85.319 85.333h-0.014zM725.333 192l-213.333 93.013-213.333-93.013v554.667h426.667z" />
<glyph unicode="&#xe925;" glyph-name="bookmark" d="M725.333 832h-426.667c-46.944-0.242-84.907-38.354-84.907-85.332 0 0 0-0.001 0-0.001v0l-0.427-682.667 298.667 128 298.667-128v682.667c-0.145 47.070-38.264 85.188-85.319 85.333h-0.014z" />
<glyph unicode="&#xe926;" glyph-name="home" d="M426.667 106.667v256h170.667v-256h213.333v341.333h128l-426.667 384-426.667-384h128v-341.333z" />
<glyph unicode="&#xe927;" glyph-name="plus-circle-border" d="M554.667 661.333h-85.333v-170.667h-170.667v-85.333h170.667v-170.667h85.333v170.667h170.667v85.333h-170.667zM512 874.667c-235.641 0-426.667-191.025-426.667-426.667s191.025-426.667 426.667-426.667c235.641 0 426.667 191.025 426.667 426.667v0c0 235.641-191.025 426.667-426.667 426.667v0zM512 106.667c-188.513 0-341.333 152.82-341.333 341.333s152.82 341.333 341.333 341.333c188.513 0 341.333-152.82 341.333-341.333v0c-0.267-188.406-152.928-341.067-341.308-341.333h-0.025z" />
<glyph unicode="&#xe928;" glyph-name="plus-circle" d="M512 874.667c-235.641 0-426.667-191.025-426.667-426.667s191.025-426.667 426.667-426.667c235.641 0 426.667 191.025 426.667 426.667v0c0 235.641-191.025 426.667-426.667 426.667v0zM725.333 405.333h-170.667v-170.667h-85.333v170.667h-170.667v85.333h170.667v170.667h85.333v-170.667h170.667z" />
<glyph unicode="&#xe929;" glyph-name="triangle" d="M692.48 448l-436.48-272.64v545.28l436.48-272.64zM853.333 448l-682.667 426.667v-853.333z" />
<glyph unicode="&#xe92a;" glyph-name="dots" d="M256 405.333c-23.564 0-42.667-19.103-42.667-42.667s19.103-42.667 42.667-42.667c23.564 0 42.667 19.103 42.667 42.667v0c0 23.564-19.103 42.667-42.667 42.667v0zM256 234.667c-23.564 0-42.667-19.103-42.667-42.667s19.103-42.667 42.667-42.667c23.564 0 42.667 19.103 42.667 42.667v0c0 23.564-19.103 42.667-42.667 42.667v0zM256 576c-23.564 0-42.667-19.103-42.667-42.667s19.103-42.667 42.667-42.667c23.564 0 42.667 19.103 42.667 42.667v0c0 23.564-19.103 42.667-42.667 42.667v0zM128 554.667c-11.782 0-21.333-9.551-21.333-21.333s9.551-21.333 21.333-21.333c11.782 0 21.333 9.551 21.333 21.333v0c0 11.782-9.551 21.333-21.333 21.333v0zM256 746.667c-23.564 0-42.667-19.103-42.667-42.667s19.103-42.667 42.667-42.667c23.564 0 42.667 19.103 42.667 42.667v0c0 23.564-19.103 42.667-42.667 42.667v0zM896 512c11.782 0 21.333 9.551 21.333 21.333s-9.551 21.333-21.333 21.333c-11.782 0-21.333-9.551-21.333-21.333v0c0-11.782 9.551-21.333 21.333-21.333v0zM597.333 661.333c23.564 0 42.667 19.103 42.667 42.667s-19.103 42.667-42.667 42.667c-23.564 0-42.667-19.103-42.667-42.667v0c0-23.564 19.103-42.667 42.667-42.667v0zM597.333 810.667c11.782 0 21.333 9.551 21.333 21.333s-9.551 21.333-21.333 21.333c-11.782 0-21.333-9.551-21.333-21.333v0c0-11.782 9.551-21.333 21.333-21.333v0zM128 384c-11.782 0-21.333-9.551-21.333-21.333s9.551-21.333 21.333-21.333c11.782 0 21.333 9.551 21.333 21.333v0c0 11.782-9.551 21.333-21.333 21.333v0zM426.667 85.333c-11.782 0-21.333-9.551-21.333-21.333s9.551-21.333 21.333-21.333c11.782 0 21.333 9.551 21.333 21.333v0c0 11.782-9.551 21.333-21.333 21.333v0zM426.667 810.667c11.782 0 21.333 9.551 21.333 21.333s-9.551 21.333-21.333 21.333c-11.782 0-21.333-9.551-21.333-21.333v0c0-11.782 9.551-21.333 21.333-21.333v0zM426.667 661.333c23.564 0 42.667 19.103 42.667 42.667s-19.103 42.667-42.667 42.667c-23.564 0-42.667-19.103-42.667-42.667v0c0-23.564 19.103-42.667 42.667-42.667v0zM426.667 426.667c-35.346 0-64-28.654-64-64s28.654-64 64-64c35.346 0 64 28.654 64 64v0c0 35.346-28.654 64-64 64v0zM768 405.333c-23.564 0-42.667-19.103-42.667-42.667s19.103-42.667 42.667-42.667c23.564 0 42.667 19.103 42.667 42.667v0c0 23.564-19.103 42.667-42.667 42.667v0zM768 234.667c-23.564 0-42.667-19.103-42.667-42.667s19.103-42.667 42.667-42.667c23.564 0 42.667 19.103 42.667 42.667v0c0 23.564-19.103 42.667-42.667 42.667v0zM768 576c-23.564 0-42.667-19.103-42.667-42.667s19.103-42.667 42.667-42.667c23.564 0 42.667 19.103 42.667 42.667v0c0 23.564-19.103 42.667-42.667 42.667v0zM768 746.667c-23.564 0-42.667-19.103-42.667-42.667s19.103-42.667 42.667-42.667c23.564 0 42.667 19.103 42.667 42.667v0c0 23.564-19.103 42.667-42.667 42.667v0zM896 384c-11.782 0-21.333-9.551-21.333-21.333s9.551-21.333 21.333-21.333c11.782 0 21.333 9.551 21.333 21.333v0c0 11.782-9.551 21.333-21.333 21.333v0zM597.333 234.667c-23.564 0-42.667-19.103-42.667-42.667s19.103-42.667 42.667-42.667c23.564 0 42.667 19.103 42.667 42.667v0c0 23.564-19.103 42.667-42.667 42.667v0zM597.333 85.333c-11.782 0-21.333-9.551-21.333-21.333s9.551-21.333 21.333-21.333c11.782 0 21.333 9.551 21.333 21.333v0c0 11.782-9.551 21.333-21.333 21.333v0zM426.667 597.333c-35.346 0-64-28.654-64-64s28.654-64 64-64c35.346 0 64 28.654 64 64v0c0 35.346-28.654 64-64 64v0zM426.667 234.667c-23.564 0-42.667-19.103-42.667-42.667s19.103-42.667 42.667-42.667c23.564 0 42.667 19.103 42.667 42.667v0c0 23.564-19.103 42.667-42.667 42.667v0zM597.333 426.667c-35.346 0-64-28.654-64-64s28.654-64 64-64c35.346 0 64 28.654 64 64v0c0 35.346-28.654 64-64 64v0zM597.333 597.333c-35.346 0-64-28.654-64-64s28.654-64 64-64c35.346 0 64 28.654 64 64v0c0 35.346-28.654 64-64 64v0z" />
<glyph unicode="&#xe92b;" glyph-name="quote" d="M256 234.667h128l85.333 170.667v256h-256v-256h128zM597.333 234.667h128l85.333 170.667v256h-256v-256h128z" />
<glyph unicode="&#xe92c;" glyph-name="info" d="M512 874.667c-235.641 0-426.667-191.025-426.667-426.667s191.025-426.667 426.667-426.667c235.641 0 426.667 191.025 426.667 426.667v0c0 235.641-191.025 426.667-426.667 426.667v0zM554.667 234.667h-85.333v256h85.333zM554.667 576h-85.333v85.333h85.333z" />
<glyph unicode="&#xe92d;" glyph-name="add-photo" d="M810.667 661.333v-127.573s-84.907-0.427-85.333 0v127.573h-128s0.427 84.907 0 85.333h128v128h85.333v-128h128v-85.333zM682.667 490.667v128h-128v128h-341.333c-47.070-0.145-85.188-38.264-85.333-85.319v-512.014c0.145-47.070 38.264-85.188 85.319-85.333h512.014c47.070 0.145 85.188 38.264 85.333 85.319v341.347zM213.333 149.333l128 170.667 85.333-128 128 170.667 170.667-213.333z" />
<glyph unicode="&#xe92e;" glyph-name="add-video" d="M725.333 512v149.333c0 23.564-19.103 42.667-42.667 42.667v0h-512c-23.564 0-42.667-19.103-42.667-42.667v0-426.667c0-23.564 19.103-42.667 42.667-42.667v0h512c23.564 0 42.667 19.103 42.667 42.667v0 149.333l170.667-170.667v469.333zM597.333 405.333h-128v-128h-85.333v128h-128v85.333h128v128h85.333v-128h128z" />
<glyph unicode="&#xe92f;" glyph-name="delete" d="M256 149.333c0.145-47.070 38.264-85.188 85.319-85.333h341.347c47.070 0.145 85.188 38.264 85.333 85.319v512.014h-512zM360.96 453.12l60.16 60.16 90.88-90.453 90.453 90.453 60.16-60.16-90.453-90.453 90.453-90.453-60.16-60.16-90.453 90.453-90.453-90.453-60.16 60.16 90.453 90.453zM661.333 789.333l-42.667 42.667h-213.333l-42.667-42.667h-149.333v-85.333h597.333v85.333z" />
<glyph unicode="&#xe930;" glyph-name="bold" d="M665.6 499.627c39.791 26.091 66.651 69.078 70.369 118.521l0.031 0.519c0.011 0.729 0.018 1.588 0.018 2.45 0 92.913-75.321 168.235-168.235 168.235-0.861 0-1.721-0.006-2.579-0.019l0.13 0.002h-266.667v-597.333h300.373c87.814 2.020 158.228 73.684 158.228 161.794 0 63.862-36.99 119.084-90.713 145.41l-0.954 0.422zM426.667 682.667h128c35.346 0 64-28.654 64-64s-28.654-64-64-64v0h-128zM576 298.667h-149.333v128h149.333c35.346 0 64-28.654 64-64s-28.654-64-64-64v0z" />
<glyph unicode="&#xe931;" glyph-name="italic" d="M426.667 789.333v-128h94.293l-145.92-341.333h-119.040v-128h341.333v128h-94.293l145.92 341.333h119.040v128z" />
<glyph unicode="&#xe932;" glyph-name="strikethrough" d="M426.667 149.333h170.667v128h-170.667zM213.333 789.333v-128h213.333v-128h170.667v128h213.333v128zM128 362.667h768v85.333h-768z" />
<glyph unicode="&#xe933;" glyph-name="underlined" d="M512 234.667c141.385 0 256 114.615 256 256v0 341.333h-106.667v-341.333c0-82.475-66.859-149.333-149.333-149.333s-149.333 66.859-149.333 149.333v0 341.333h-106.667v-341.333c0-141.385 114.615-256 256-256v0zM213.333 149.333v-85.333h597.333v85.333z" />
<glyph unicode="&#xe934;" glyph-name="link" d="M166.4 448c0 73.049 59.218 132.267 132.267 132.267v0h170.667v81.067h-170.667c-117.821 0-213.333-95.513-213.333-213.333s95.513-213.333 213.333-213.333v0h170.667v81.067h-170.667c-73.049 0-132.267 59.218-132.267 132.267v0zM341.333 405.333h341.333v85.333h-341.333zM725.333 661.333h-170.667v-81.067h170.667c73.049 0 132.267-59.218 132.267-132.267s-59.218-132.267-132.267-132.267h-170.667v-81.067h170.667c117.821 0 213.333 95.513 213.333 213.333s-95.513 213.333-213.333 213.333v0z" />
<glyph unicode="&#xe935;" glyph-name="close" d="M810.667 686.507l-60.16 60.16-238.507-238.507-238.507 238.507-60.16-60.16 238.507-238.507-238.507-238.507 60.16-60.16 238.507 238.507 238.507-238.507 60.16 60.16-238.507 238.507z" />
<glyph unicode="&#xe936;" glyph-name="zoom-in" d="M661.333 362.667h-33.707l-11.947 11.52c41.633 48.289 66.989 111.635 66.989 180.904 0 153.403-124.357 277.76-277.76 277.76s-277.76-124.357-277.76-277.76c0-153.403 124.357-277.76 277.76-277.76 69.269 0 132.615 25.356 181.264 67.293l-0.36-0.304 11.52-11.947v-33.707l213.333-212.907 63.573 63.573zM405.333 362.667c-106.039 0-192 85.961-192 192s85.961 192 192 192c106.039 0 192-85.961 192-192v0c0-0.076 0-0.166 0-0.256 0-105.897-85.847-191.744-191.744-191.744-0.090 0-0.18 0-0.27 0h0.014zM512 533.333h-85.333v-85.333h-42.667v85.333h-85.333v42.667h85.333v85.333h42.667v-85.333h85.333z" />
<glyph unicode="&#xe937;" glyph-name="arrow-down" d="M316.16 593.493l195.84-195.413 195.84 195.413 60.16-60.16-256-256-256 256z" />
<glyph unicode="&#xe938;" glyph-name="arrow-up" d="M316.16 277.333l195.84 195.413 195.84-195.413 60.16 60.16-256 256-256-256z" />
<glyph unicode="&#xe939;" glyph-name="note" d="M938.667 533.333l-256 256h-512c-47.070-0.145-85.188-38.264-85.333-85.319v-512.441c0.242-46.944 38.354-84.907 85.332-84.907 0 0 0.001 0 0.001 0l682.667 0.427c0 0 0.001 0 0.001 0 46.978 0 85.090 37.962 85.332 84.884v0.023zM640 725.333l234.667-234.667h-234.667z" />
<glyph unicode="&#xe93a;" glyph-name="lock" d="M768 618.667h-42.667v85.333c0 117.821-95.513 213.333-213.333 213.333s-213.333-95.513-213.333-213.333v0-85.333h-42.667c-47.070-0.145-85.188-38.264-85.333-85.319v-426.681c0.145-47.070 38.264-85.188 85.319-85.333h512.014c47.070 0.145 85.188 38.264 85.333 85.319v426.681c-0.145 47.070-38.264 85.188-85.319 85.333h-0.014zM384 704c0 70.692 57.308 128 128 128s128-57.308 128-128v0-85.333h-256zM768 106.667h-512v426.667h512zM512 234.667c47.128 0 85.333 38.205 85.333 85.333s-38.205 85.333-85.333 85.333c-47.128 0-85.333-38.205-85.333-85.333v0c0.145-47.070 38.264-85.188 85.319-85.333h0.014z" />
<glyph unicode="&#xe93b;" glyph-name="play-circle-border" d="M426.667 256l256 192-256 192zM512 874.667c-235.641 0-426.667-191.025-426.667-426.667s191.025-426.667 426.667-426.667c235.641 0 426.667 191.025 426.667 426.667v0c0 235.641-191.025 426.667-426.667 426.667v0zM512 106.667c-188.513 0-341.333 152.82-341.333 341.333s152.82 341.333 341.333 341.333c188.513 0 341.333-152.82 341.333-341.333v0c-0.267-188.406-152.928-341.067-341.308-341.333h-0.025z" />
<glyph unicode="&#xe93c;" glyph-name="pause-circle-border" d="M384 277.333h85.333v341.333h-85.333zM512 874.667c-235.641 0-426.667-191.025-426.667-426.667s191.025-426.667 426.667-426.667c235.641 0 426.667 191.025 426.667 426.667v0c0 235.641-191.025 426.667-426.667 426.667v0zM512 106.667c-188.513 0-341.333 152.82-341.333 341.333s152.82 341.333 341.333 341.333c188.513 0 341.333-152.82 341.333-341.333v0c-0.267-188.406-152.928-341.067-341.308-341.333h-0.025zM554.667 277.333h85.333v341.333h-85.333z" />
<glyph unicode="&#xe93d;" glyph-name="wallet" d="M896 192v-42.667c-0.145-47.070-38.264-85.188-85.319-85.333h-597.347c-47.128 0-85.333 38.205-85.333 85.333v0 597.333c0 47.128 38.205 85.333 85.333 85.333v0h597.333c47.070-0.145 85.188-38.264 85.333-85.319v-42.681h-384c-47.128 0-85.333-38.205-85.333-85.333v0-341.333c0-47.128 38.205-85.333 85.333-85.333v0zM512 277.333h426.667v341.333h-426.667zM682.667 384c-35.346 0-64 28.654-64 64s28.654 64 64 64c35.346 0 64-28.654 64-64v0c0-35.346-28.654-64-64-64v0z" />
<glyph unicode="&#xe93e;" glyph-name="pause" d="M469.333 277.333h-85.333v341.333h85.333zM640 277.333h-85.333v341.333h85.333z" />
<glyph unicode="&#xe93f;" glyph-name="tag" d="M913.493 465.92l-384 384c-15.36 15.36-36.693 24.747-60.16 24.747h-298.667c-46.933 0-85.333-38.4-85.333-85.333v-298.667c0-23.467 9.387-44.8 25.173-60.587l384-384c15.36-15.36 36.693-24.747 60.16-24.747s44.8 9.387 60.16 25.173l298.667 298.667c15.787 15.36 25.173 36.693 25.173 60.16s-9.813 45.227-25.173 60.587zM554.667 106.24l-384 384.427v298.667h298.667v0.427l384-384-298.667-299.52zM277.333 618.667c35.346 0 64 28.654 64 64s-28.654 64-64 64c-35.346 0-64-28.654-64-64s28.654-64 64-64z" />
<glyph unicode="&#xe940;" glyph-name="arrow-downward" d="M853.333 448l-60.16 60.16-238.507-238.080v519.253h-85.333v-519.253l-238.080 238.507-60.587-60.587 341.333-341.333z" />
<glyph unicode="&#xe941;" glyph-name="arrow-upward" d="M170.667 448l60.16-60.16 238.507 238.080v-519.253h85.333v519.253l238.080-238.507 60.587 60.587-341.333 341.333z" />
<glyph unicode="&#xe942;" glyph-name="rating" d="M511.573 874.667c-235.458-0.243-426.24-191.175-426.24-426.666 0-235.641 191.025-426.667 426.667-426.667s426.667 191.025 426.667 426.667v0c0 235.642-191.025 426.667-426.667 426.667-0.15 0-0.3 0-0.45 0h0.023zM692.48 192l-180.48 108.8-180.48-108.8 47.787 205.227-159.147 137.813 209.92 17.92 81.92 193.707 81.92-193.28 209.92-17.92-159.147-137.813z" />
<glyph unicode="&#xe943;" glyph-name="rating-border" d="M511.573 874.667c-235.458-0.243-426.24-191.175-426.24-426.666 0-235.641 191.025-426.667 426.667-426.667s426.667 191.025 426.667 426.667v0c0 235.642-191.025 426.667-426.667 426.667-0.15 0-0.3 0-0.45 0h0.023zM830.72 569.173l-213.76 18.347-85.333 200.96c136.641-8.53 250.889-95.986 298.29-216.979l0.803-2.328zM614.4 302.080l-102.4 61.44-101.973-61.44 26.88 116.053-90.027 78.080 118.613 10.24 46.507 109.653 46.507-109.227 118.613-10.24-90.027-78.080 27.307-116.48zM492.373 788.48l-85.333-201.387-214.187-18.347c47.959 123.75 162.537 211.522 298.574 219.688l0.946 0.045zM170.667 448c0.003 28.187 3.582 55.537 10.308 81.623l-0.495-2.263 161.707-139.947-47.36-202.667c-76.062 62.925-124.16 157.331-124.16 262.971 0 0.099 0 0.199 0 0.298v-0.015zM334.507 157.013l177.493 107.093 177.493-106.667c-50.511-31.867-111.966-50.777-177.837-50.777-65.587 0-126.795 18.747-178.559 51.174l1.41-0.824zM729.173 184.747l-47.36 202.667 161.707 139.947c6.041-23.768 9.607-51.098 9.813-79.228l0.001-0.132c-0.115-105.702-48.175-200.156-123.599-262.801l-0.561-0.453z" />
<glyph unicode="&#xe944;" glyph-name="edit" d="M128 224v-160h160l471.893 471.893-160 160zM883.627 659.627c7.668 7.712 12.407 18.343 12.407 30.080s-4.74 22.368-12.409 30.082l-99.838 99.838c-7.712 7.668-18.343 12.407-30.080 12.407s-22.368-4.74-30.082-12.409l-78.078-78.078 160-160 78.080 78.080z" />
<glyph unicode="&#xe945;" glyph-name="check" d="M384 268.8l-179.2 179.2-59.733-59.733 238.933-238.933 512 512-59.733 59.733z" />
<glyph unicode="&#xe946;" glyph-name="settings" d="M816.64 407.893c1.63 11.785 2.561 25.402 2.561 39.237 0 0.306 0 0.611-0.001 0.917v-0.047c0.004 0.538 0.007 1.173 0.007 1.81 0 13.52-1.088 26.785-3.183 39.714l0.189-1.417 86.613 67.413c4.656 3.87 7.598 9.663 7.598 16.143 0 3.619-0.918 7.023-2.533 9.993l0.055-0.11-81.92 141.653c-3.64 6.379-10.398 10.609-18.145 10.609-2.521 0-4.937-0.448-7.173-1.269l0.144 0.046-101.973-40.96c-19.954 15.577-42.726 29.033-67.143 39.364l-1.977 0.743-15.36 108.373c-1.585 9.966-10.117 17.493-20.408 17.493-0.025 0-0.051 0-0.076 0h-163.836c-0.004 0-0.009 0-0.015 0-10.206 0-18.647-7.561-20.027-17.386l-0.012-0.107-15.36-108.373c-26.39-11.16-49.154-24.609-69.824-40.631l0.704 0.525-101.973 40.96c-2.15 0.844-4.641 1.333-7.245 1.333-7.712 0-14.423-4.29-17.875-10.613l-0.053-0.106-81.493-141.653c-1.847-2.917-2.943-6.469-2.943-10.277 0-6.459 3.155-12.182 8.007-15.711l0.056-0.039 86.613-67.413c-2.451-12.807-3.853-27.537-3.853-42.595 0-13.282 1.091-26.31 3.188-38.998l-0.188 1.38-86.613-67.413c-4.656-3.87-7.598-9.663-7.598-16.143 0-3.619 0.918-7.023 2.533-9.993l-0.055 0.11 81.92-141.653c3.64-6.379 10.398-10.609 18.145-10.609 2.521 0 4.937 0.448 7.173 1.269l-0.144-0.046 101.973 40.96c19.954-15.577 42.726-29.033 67.143-39.364l1.977-0.743 15.36-108.373c1.722-9.919 10.213-17.383 20.468-17.493h163.852c0.094-0.002 0.204-0.002 0.314-0.002 10.14 0 18.507 7.59 19.729 17.399l0.010 0.097 15.36 108.373c26.402 10.955 49.186 24.422 69.75 40.584l-0.63-0.478 101.973-40.96c2.15-0.844 4.641-1.333 7.245-1.333 7.712 0 14.423 4.29 17.875 10.613l0.053 0.106 81.92 141.653c1.777 2.907 2.829 6.424 2.829 10.187 0 6.462-3.102 12.199-7.899 15.803l-0.051 0.037zM512 294.4c-84.831 0-153.6 68.769-153.6 153.6s68.769 153.6 153.6 153.6c84.831 0 153.6-68.769 153.6-153.6v0c-0.266-84.724-68.876-153.334-153.575-153.6h-0.025z" />
<glyph unicode="&#xe947;" glyph-name="course" d="M213.333 397.653v-170.667l298.667-162.987 298.667 162.987v170.667l-298.667-162.987zM512 832l-469.333-256 469.333-256 384 209.493v-294.827h85.333v341.333z" />
<glyph unicode="&#xe948;" glyph-name="label" d="M913.493 465.92l-384 384c-15.334 15.292-36.494 24.747-59.864 24.747-0.104 0-0.208 0-0.313-0.001h-298.651c-47.070-0.145-85.188-38.264-85.333-85.319v-298.681c0-0.020 0-0.044 0-0.068 0-23.653 9.624-45.059 25.169-60.515l384.004-384.004c15.334-15.292 36.494-24.747 59.864-24.747 0.104 0 0.208 0 0.313 0.001h-0.016c0.132-0.001 0.288-0.001 0.444-0.001 23.401 0 44.552 9.636 59.7 25.158l0.016 0.017 298.667 298.667c15.538 15.164 25.175 36.315 25.175 59.716 0 0.156 0 0.312-0.001 0.468v-0.024c-0.081 23.661-9.684 45.063-25.175 60.588l0.002-0.002zM234.667 661.333c-35.346 0-64 28.654-64 64s28.654 64 64 64c35.346 0 64-28.654 64-64v0c0-35.346-28.654-64-64-64v0z" />
<glyph unicode="&#xe949;" glyph-name="copy" d="M682.667 917.333h-512c-47.070-0.145-85.188-38.264-85.333-85.319v-597.347h85.333v597.333h512zM810.667 746.667h-469.333c-47.070-0.145-85.188-38.264-85.333-85.319v-597.347c0.145-47.070 38.264-85.188 85.319-85.333h469.347c47.070 0.145 85.188 38.264 85.333 85.319v597.347c-0.145 47.070-38.264 85.188-85.319 85.333h-0.014zM810.667 64h-469.333v597.333h469.333z" />
<glyph unicode="&#xe94a;" glyph-name="profile-settings" d="M170.667 192v27.733c0 14.507 6.827 28.16 17.493 34.56 72.107 43.093 154.453 65.707 238.507 65.707 1.28 0 2.133 0 3.413-0.427 4.267 29.867 12.8 58.453 25.173 84.48-9.387 0.853-18.773 1.28-28.587 1.28-103.253 0-199.68-28.587-282.027-77.653-37.547-22.187-59.307-64-59.307-107.947v-113.067h395.093c-17.92 25.6-32 54.613-41.387 85.333h-268.373zM426.667 448c94.293 0 170.667 76.373 170.667 170.667s-76.373 170.667-170.667 170.667c-94.293 0-170.667-76.373-170.667-170.667s76.373-170.667 170.667-170.667zM426.667 704c46.933 0 85.333-38.4 85.333-85.333s-38.4-85.333-85.333-85.333c-46.933 0-85.333 38.4-85.333 85.333s38.4 85.333 85.333 85.333zM885.333 277.333c0 9.387-1.28 17.92-2.56 26.88l48.64 43.093-42.667 73.813-61.867-20.907c-13.653 11.52-29.013 20.48-46.080 26.88l-12.8 63.573h-85.333l-12.8-63.573c-17.067-6.4-32.427-15.36-46.080-26.88l-61.867 20.907-42.667-73.813 48.64-43.093c-1.28-8.96-2.56-17.493-2.56-26.88s1.28-17.92 2.56-26.88l-48.64-43.093 42.667-73.813 61.867 20.907c13.653-11.52 29.013-20.48 46.080-26.88l12.8-63.573h85.333l12.8 63.573c17.067 6.4 32.427 15.36 46.080 26.88l61.867-20.907 42.667 73.813-48.64 43.093c1.28 8.96 2.56 17.493 2.56 26.88zM725.333 192c-46.933 0-85.333 38.4-85.333 85.333s38.4 85.333 85.333 85.333c46.933 0 85.333-38.4 85.333-85.333s-38.4-85.333-85.333-85.333z" />
<glyph unicode="&#xe94b;" d="M768-64h-512c-67.894 0.003-133.007 26.976-181.016 74.982-48.009 48.010-74.981 113.123-74.984 181.018v512c0.003 67.894 26.975 133.007 74.984 181.016s113.122 74.981 181.016 74.984h512c67.894 0 133.011-26.971 181.021-74.981 48.006-48.009 74.979-113.124 74.979-181.019v-512c0-67.894-26.973-133.011-74.979-181.021-48.010-48.006-113.126-74.979-181.021-74.979z" />
<glyph unicode="&#xe94c;" d="M480 672h288c36.915 0.002 72.422 14.181 99.184 39.61 26.765 25.428 42.739 60.162 44.627 97.030 1.891 36.868-10.451 73.053-34.474 101.084-24.026 28.030-57.894 45.764-94.618 49.54-4.896 0.272-9.744 0.736-14.72 0.736h-512c-67.894-0.003-133.007-26.975-181.016-74.984s-74.981-113.122-74.984-181.016v-512c0.003 127.302 50.575 249.392 140.592 339.408s212.106 140.589 339.408 140.592z" />
<glyph unicode="&#xe94d;" d="M768 448c-50.634 0-100.128-15.014-142.227-43.142-42.099-28.131-74.909-68.112-94.285-114.89s-24.448-98.253-14.57-147.91c9.878-49.661 34.259-95.274 70.061-131.078 35.805-35.802 81.418-60.182 131.078-70.061 49.658-9.878 101.133-4.806 147.91 14.57s86.758 52.186 114.886 94.285c28.131 42.099 43.146 91.594 43.146 142.227v512c0-67.894-26.973-133.011-74.982-181.021-48.006-48.006-113.123-74.979-181.018-74.979z" />
<glyph unicode="&#xe94e;" d="M346.768 206.512c4.259 1.213 8.723 1.526 13.11 0.928 4.387-0.602 8.602-2.106 12.378-4.416 63.619-37.901 138.89-51.254 211.664-37.546 72.771 13.709 138.026 53.536 183.491 111.987 45.466 58.448 68.010 131.498 63.392 205.405-4.621 73.907-36.083 143.581-88.474 195.916s-122.099 83.724-196.010 88.265c-73.914 4.541-146.938-18.080-205.341-63.608-58.402-45.528-98.157-110.825-111.788-183.612s-0.199-148.045 37.77-211.622c2.302-3.763 3.798-7.968 4.393-12.339 0.595-4.374 0.276-8.826-0.937-13.069-8.912-31.536-30.416-106.8-30.416-106.8s75.264 21.504 106.767 30.512zM211.505 276.256c-45.745 77.114-61.766 168.272-45.055 256.362s65.005 167.049 135.814 222.050c70.808 55.001 159.26 82.262 248.744 76.662 89.488-5.599 173.85-43.674 237.251-107.073 63.398-63.399 101.472-147.764 107.072-237.249s-21.661-177.936-76.662-248.746c-55.002-70.806-133.962-119.101-222.051-135.811-88.086-16.714-179.248-0.691-256.362 45.053 0 0-102.031-29.152-152.559-43.6-2.745-0.781-5.649-0.813-8.411-0.096s-5.283 2.16-7.301 4.176c-2.018 2.019-3.46 4.541-4.178 7.302s-0.684 5.667 0.097 8.41c14.448 50.528 43.6 152.56 43.6 152.56z" />
<glyph unicode="&#xe94f;" d="M351.702 563.424c4.979-71.645 35.555-139.107 86.15-190.077 50.592-50.97 117.83-82.048 189.434-87.555h0.032c11.434-0.883 22.922 0.717 33.677 4.694s20.522 10.237 28.627 18.346l11.168 11.168c5.274 5.277 8.237 12.429 8.24 19.888v23.712c0 2.973-0.829 5.888-2.39 8.416s-3.798 4.573-6.458 5.904c-16.848 8.416-53.424 26.704-71.344 35.664-3.005 1.504-6.406 2.022-9.722 1.485-3.318-0.534-6.381-2.102-8.758-4.477-8.928-8.928-23.040-23.056-31.040-31.040-1.862-1.862-4.154-3.235-6.675-4-2.518-0.765-5.19-0.896-7.773-0.384l-0.144 0.032c-30.976 6.195-59.424 21.421-81.76 43.757-22.339 22.339-37.565 50.787-43.76 81.763l-0.032 0.144c-0.512 2.582-0.381 5.254 0.384 7.773 0.765 2.522 2.138 4.813 4 6.675 7.984 8 22.112 22.112 31.040 31.040 2.374 2.378 3.942 5.44 4.477 8.758 0.538 3.315 0.019 6.717-1.485 9.722-8.96 17.92-27.248 54.496-35.664 71.344-1.331 2.659-3.373 4.894-5.904 6.457-2.528 1.563-5.443 2.39-8.416 2.391h-20.16c-4.787-0.001-9.52-1.008-13.894-2.953s-8.291-4.788-11.498-8.343c-3.216-3.584-6.912-7.68-10.624-11.808-6.986-7.754-12.339-16.832-15.744-26.698-3.402-9.866-4.784-20.314-4.064-30.726 0.032-0.352 0.048-0.704 0.080-1.072z" />
<glyph unicode="&#xe950;" d="M768-64h-512c-67.894 0.003-133.007 26.976-181.016 74.982-48.009 48.010-74.981 113.123-74.984 181.018v512c0.003 67.894 26.975 133.007 74.984 181.016s113.122 74.981 181.016 74.984h512c67.894 0 133.011-26.971 181.021-74.981 48.006-48.009 74.979-113.124 74.979-181.019v-512c0-67.894-26.973-133.011-74.979-181.021-48.010-48.006-113.126-74.979-181.021-74.979z" />
<glyph unicode="&#xe951;" d="M480 672h288c36.915 0.002 72.422 14.181 99.184 39.61 26.765 25.428 42.739 60.162 44.627 97.030 1.891 36.868-10.451 73.053-34.474 101.084-24.026 28.030-57.894 45.764-94.618 49.54-4.896 0.272-9.744 0.736-14.72 0.736h-512c-67.894-0.003-133.007-26.975-181.016-74.984s-74.981-113.122-74.984-181.016v-512c0.003 127.302 50.575 249.392 140.592 339.408s212.106 140.589 339.408 140.592z" />
<glyph unicode="&#xe952;" d="M768 448c-50.634 0-100.128-15.014-142.227-43.142-42.099-28.131-74.909-68.112-94.285-114.89s-24.448-98.253-14.57-147.91c9.878-49.661 34.259-95.274 70.061-131.078 35.805-35.802 81.418-60.182 131.078-70.061 49.658-9.878 101.133-4.806 147.91 14.57s86.758 52.186 114.886 94.285c28.131 42.099 43.146 91.594 43.146 142.227v512c0-67.894-26.973-133.011-74.982-181.021-48.006-48.006-113.123-74.979-181.018-74.979z" />
<glyph unicode="&#xe953;" d="M849.888 611.136c5.184 16.288 0 28.112-22.96 28.112h-76.24c-7.104 0.394-14.15-1.469-20.131-5.322-5.981-3.856-10.589-9.501-13.165-16.134-23.843-56.221-55.498-108.8-94.032-156.176-17.76-17.76-25.888-23.696-35.52-23.696-5.184 0-11.84 5.936-11.84 22.224v151.728c0 19.248-5.936 28.128-22.208 28.128h-116.896c-2.435 0.117-4.867-0.25-7.158-1.082-2.291-0.835-4.394-2.115-6.186-3.766-1.792-1.654-3.235-3.645-4.25-5.862s-1.574-4.614-1.654-7.050c0-18.512 27.392-22.944 30.352-74.768v-112.496c0-24.432-4.448-28.88-14.064-28.88-25.92 0-99.248 95.488-137.008 204.304-7.408 21.472-14.784 29.6-34.048 29.6h-76.976c-22.208 0-25.904-10.352-25.904-21.456 0-48.896 138.208-393.792 361.232-393.792 48.832 0 54.768 11.088 54.768 29.6v68.832c0 22.224 4.448 25.92 19.984 25.92 39.696 0 111.536-88.672 130.096-107.248 4.285-5.408 9.702-9.808 15.872-12.893 6.173-3.088 12.944-4.781 19.84-4.963h76.24c22.208 0 29.936 13.488 24.032 34.944-13.728 44.16-109.232 135.008-114.32 141.968-11.12 14.816-8.16 20.72 0 34.064-0.752 0 92.512 131.744 102.144 176.16z" />
<glyph unicode="&#xe954;" d="M768-64h-512c-33.62-0.003-66.91 6.614-97.972 19.478s-59.284 31.722-83.056 55.494c-23.772 23.773-42.629 51.994-55.493 83.056-12.864 31.059-19.483 64.352-19.479 97.971v512c-0.004 33.62 6.615 66.91 19.479 97.972s31.721 59.284 55.493 83.056c23.772 23.772 51.995 42.629 83.056 55.493s64.352 19.483 97.972 19.479h512c33.619 0.004 66.912-6.615 97.971-19.479 31.062-12.864 59.283-31.721 83.056-55.493s42.63-51.995 55.494-83.056c12.864-31.061 19.482-64.352 19.478-97.972v-512c0.003-33.619-6.614-66.912-19.478-97.971-12.864-31.062-31.722-59.283-55.494-83.056s-51.994-42.63-83.056-55.494c-31.059-12.864-64.352-19.482-97.971-19.478z" />
<glyph unicode="&#xe955;" d="M480 672h288c36.915 0.002 72.422 14.181 99.184 39.61 26.765 25.428 42.739 60.162 44.627 97.030 1.891 36.868-10.451 73.053-34.474 101.084-24.026 28.030-57.894 45.764-94.618 49.54-4.96 0.272-9.76 0.736-14.72 0.736h-512c-33.62 0.004-66.91-6.615-97.972-19.479s-59.284-31.721-83.056-55.493c-23.772-23.772-42.629-51.995-55.493-83.056s-19.483-64.352-19.479-97.972v-512c0 127.302 50.571 249.395 140.589 339.411s212.109 140.589 339.411 140.589z" />
<glyph unicode="&#xe956;" d="M768 448c-50.634 0-100.128-15.014-142.227-43.142-42.099-28.131-74.909-68.112-94.285-114.89s-24.448-98.253-14.57-147.91c9.878-49.661 34.259-95.274 70.061-131.078 35.805-35.802 81.418-60.182 131.078-70.061 49.658-9.878 101.133-4.806 147.91 14.57s86.758 52.186 114.886 94.285c28.131 42.099 43.146 91.594 43.146 142.227v512c0.003-33.62-6.614-66.909-19.478-97.971s-31.722-59.283-55.494-83.056c-23.773-23.773-51.994-42.63-83.056-55.494s-64.352-19.482-97.971-19.478z" />
<glyph unicode="&#xe957;" d="M799.987 394.128c-18.4-148.432-127.040-157.76-147.040-164.192-61.203-14.95-124.352-20.326-187.2-15.936 0 0-74.24-75.904-97.28-99.168-1.306-1.536-2.96-2.736-4.826-3.498s-3.888-1.066-5.894-0.886c-4 0.976-5.12 5.696-5.12 12.608 0.16 9.856 0.64 108.64 0.64 108.64-144.959 40.24-136.479 191.552-134.879 270.8s16.48 144.144 60.8 187.792c79.359 71.952 243.039 61.2 243.039 61.2 138.24-0.592 204.48-42.208 219.84-56.16 50.88-43.648 76.96-148.112 57.92-301.168v-0.032zM780.147 732.352c-18.080 16.736-91.52 69.984-254.88 70.704 0 0-192.64 11.632-286.559-74.528-52.32-52.288-70.72-128.8-72.64-223.664s-17.44-272.656 153.92-320.864v-73.552c0-18.8 5.599-46.448 32.639-46.448 11.040 0 26.72 4.224 48.64 26.496l72.8 70.192c66.48-3.504 133.117 2.454 197.92 17.696 23.68 7.68 157.6 24.832 179.36 202.592 22.4 183.232-10.88 299.136-71.2 351.376z" />
<glyph unicode="&#xe958;" d="M512.003 672c23.114 0.006 46.003-4.542 67.36-13.385s40.758-21.805 57.104-38.151c16.346-16.346 29.309-35.75 38.15-57.104 8.845-21.357 13.392-44.246 13.386-67.36-0.038-4.227-1.699-8.275-4.64-11.312-2.24-2.237-5.094-3.763-8.202-4.381-3.104-0.618-6.323-0.301-9.251 0.909s-5.43 3.261-7.194 5.891c-1.763 2.63-2.707 5.725-2.714 8.893-0.029 38.182-15.21 74.794-42.208 101.792s-63.61 42.179-101.792 42.208h-1.44c-4.24 0.007-8.307 1.695-11.306 4.694s-4.688 7.065-4.694 11.306c-0.019 2.099 0.384 4.181 1.181 6.124s1.971 3.707 3.459 5.188c1.491 1.491 3.264 2.673 5.213 3.477s4.038 1.216 6.147 1.211h1.44z" />
<glyph unicode="&#xe959;" d="M512.003 608c14.707 0.003 29.274-2.893 42.864-8.522 13.587-5.629 25.936-13.878 36.336-24.278s18.65-22.749 24.278-36.336c5.629-13.59 8.525-28.157 8.522-42.864-0.006-3.168-0.95-6.262-2.714-8.893s-4.266-4.682-7.194-5.891c-2.925-1.21-6.144-1.526-9.251-0.909s-5.962 2.144-8.202 4.381c-2.941 3.037-4.602 7.085-4.64 11.312-0.003 21.216-8.435 41.562-23.437 56.563s-35.347 23.43-56.563 23.437h-1.44c-2.109-0.006-4.198 0.406-6.147 1.21-1.949 0.806-3.722 1.987-5.213 3.478-1.488 1.482-2.662 3.245-3.459 5.187s-1.2 4.026-1.181 6.125c0.006 4.24 1.696 8.307 4.694 11.306s7.066 4.688 11.306 4.694h1.44z" />
<glyph unicode="&#xe95a;" d="M681.094 337.904c2.966 4.707 4.25 10.282 3.638 15.811s-3.078 10.688-6.998 14.637c-19.581 17.27-40.803 32.592-63.36 45.744-5.587 3.482-12.218 4.893-18.739 3.987s-12.515-4.074-16.941-8.947l-12.96-16.144c-16.32-20.16-66.24 10.064-89.92 34.816-24.8 23.824-55.040 73.68-34.88 90.032l16.16 12.816c4.877 4.442 8.042 10.451 8.947 16.982 0.906 6.534-0.506 13.178-3.987 18.778-13.072 22.608-28.403 43.834-45.76 63.344-3.933 3.93-9.082 6.406-14.605 7.024-5.523 0.621-11.091-0.656-15.795-3.616-12.378-7.29-23.597-16.394-33.28-27.008-5.786-5.44-9.917-12.403-11.926-20.086s-1.814-15.776 0.566-23.354c22.256-62.134 57.245-118.934 102.72-166.768 47.853-45.411 104.627-80.371 166.72-102.656 7.581-2.41 15.686-2.63 23.386-0.634s14.678 6.125 20.134 11.914c10.138 10.106 19.149 21.28 26.88 33.328z" />
<glyph unicode="&#xe95b;" d="M768-64h-512c-67.894 0.003-133.007 26.976-181.016 74.982-48.009 48.010-74.981 113.123-74.984 181.018v512c0.003 67.894 26.975 133.007 74.984 181.016s113.122 74.981 181.016 74.984h512c67.894 0 133.011-26.971 181.021-74.981 48.006-48.009 74.979-113.124 74.979-181.019v-512c0-67.894-26.973-133.011-74.979-181.021-48.010-48.006-113.126-74.979-181.021-74.979z" />
<glyph unicode="&#xe95c;" d="M480 672h288c36.915 0.002 72.422 14.181 99.184 39.61 26.765 25.428 42.739 60.162 44.627 97.030 1.891 36.868-10.451 73.053-34.474 101.084-24.026 28.030-57.894 45.764-94.618 49.54-4.896 0.272-9.744 0.736-14.72 0.736h-512c-67.894-0.003-133.007-26.975-181.016-74.984s-74.981-113.122-74.984-181.016v-512c0.003 127.302 50.575 249.392 140.592 339.408s212.106 140.589 339.408 140.592z" />
<glyph unicode="&#xe95d;" d="M768 448c-50.634 0-100.128-15.014-142.227-43.142-42.099-28.131-74.909-68.112-94.285-114.89s-24.448-98.253-14.57-147.91c9.878-49.661 34.259-95.274 70.061-131.078 35.805-35.802 81.418-60.182 131.078-70.061 49.658-9.878 101.133-4.806 147.91 14.57s86.758 52.186 114.886 94.285c28.131 42.099 43.146 91.594 43.146 142.227v512c0-67.894-26.973-133.011-74.982-181.021-48.006-48.006-113.123-74.979-181.018-74.979z" />
<glyph unicode="&#xe95e;" d="M721.258 687.488c7.866 3.247 16.451 4.346 24.883 3.182 8.429-1.164 16.397-4.548 23.088-9.804s11.866-12.198 14.992-20.113c3.126-7.915 4.090-16.518 2.797-24.929-18.646-121.264-52.832-343.472-70.979-461.424-1.254-8.163-4.595-15.862-9.699-22.355-5.101-6.493-11.792-11.562-19.424-14.714s-15.949-4.278-24.147-3.277c-8.198 1.002-15.997 4.102-22.646 9.002-64.195 47.296-160.442 118.208-209.306 154.224-3.77 2.781-6.886 6.352-9.123 10.467-2.24 4.115-3.549 8.672-3.834 13.347s0.461 9.357 2.182 13.712c1.722 4.355 4.381 8.282 7.786 11.498 44.774 42.288 133.955 126.512 195.315 184.464 1.446 1.373 2.326 3.238 2.467 5.226 0.144 1.99-0.461 3.958-1.696 5.526-1.235 1.565-3.008 2.614-4.976 2.941-1.968 0.323-3.984-0.096-5.658-1.181-78.675-51.312-199.165-129.888-258.218-168.4-11.066-7.216-23.504-12.074-36.534-14.262s-26.372-1.664-39.19 1.542c-32.517 8.128-79.419 19.856-121.158 30.288-6.535 1.632-12.388 5.286-16.725 10.438-4.338 5.155-6.938 11.546-7.432 18.262s1.145 13.421 4.683 19.152c3.538 5.731 8.794 10.202 15.020 12.771 145.299 60.016 429.65 177.456 567.532 234.416z" />
</font>
</defs>
</svg>
