<svg width="32" height="32" fill="none" xmlns="http://www.w3.org/2000/svg"><g clip-path="url(#clip0_454_17174)"><path d="M21.657 12.229l-1.886-1.886L16 14.114l-3.771-3.77-1.886 1.885L14.114 16l-3.77 3.771 1.885 1.886L16 17.886l3.771 3.77 1.886-1.885L17.886 16l3.77-3.771zm3.771-5.657c-5.204-5.204-13.652-5.204-18.856 0-5.204 5.204-5.204 13.652 0 18.856 5.204 5.204 13.652 5.204 18.856 0 5.204-5.204 5.204-13.652 0-18.856zm-16.97 16.97C4.3 19.386 4.3 12.616 8.458 8.459c4.157-4.158 10.927-4.158 15.085 0 4.157 4.157 4.157 10.927 0 15.085-4.158 4.157-10.928 4.157-15.085 0z" fill="#000"/></g><defs><clipPath id="clip0_454_17174"><path fill="#fff" d="M0 0h32v32H0z"/></clipPath></defs></svg>