<svg width="32" height="32" fill="none" xmlns="http://www.w3.org/2000/svg"><g clip-path="url(#clip0_580_1794)"><path fill-rule="evenodd" clip-rule="evenodd" d="M24 32H8a8 8 0 01-8-8V8a8 8 0 018-8h16a7.999 7.999 0 018 8v16a8 8 0 01-8 8z" fill="#E5ECF7"/><path fill-rule="evenodd" clip-rule="evenodd" d="M15 9h9a4.5 4.5 0 00.46-8.977C24.305.015 24.155 0 24 0H8a8 8 0 00-8 8v16A15 15 0 0115 9zm9 7a8 8 0 108 8V8a8 8 0 01-8 8z" fill="#E5ECF7"/><path d="M13.915 15.732A1.273 1.273 0 1015.08 17a1.218 1.218 0 00-1.165-1.268zm4.17 0A1.273 1.273 0 1019.25 17a1.218 1.218 0 00-1.165-1.268z" fill="#1771E5"/><path d="M26 8.497a2.347 2.347 0 00-2.345-2.354H8.345A2.348 2.348 0 006 8.497v15.148A2.348 2.348 0 008.345 26h12.25a.498.498 0 00.48-.637c-.17-.586-.39-1.363-.39-1.363s2.975 2.797 4.47 4.207a.5.5 0 00.845-.364V8.497zm-6.66 12.564a.322.322 0 01-.265-.119l-.355-.436a.326.326 0 01.135-.509 3.424 3.424 0 001.635-1.215 8.42 8.42 0 01-8.98 0c.41.562.98.986 1.635 1.215a.325.325 0 01.135.509l-.355.436a.322.322 0 01-.265.119 4.142 4.142 0 01-3.335-1.73c.037-2.316.6-4.595 1.645-6.662a5.766 5.766 0 013.155-1.2.125.125 0 01.123.095.12.12 0 01-.083.143 7.478 7.478 0 00-2.67 1.396 9.367 9.367 0 019.01 0 7.477 7.477 0 00-2.67-1.396.121.121 0 01-.083-.143.124.124 0 01.123-.095 5.766 5.766 0 013.155 1.2 15.31 15.31 0 011.645 6.662 4.142 4.142 0 01-3.335 1.73z" fill="#1771E5"/></g><defs><clipPath id="clip0_580_1794"><path fill="#fff" d="M0 0h32v32H0z"/></clipPath></defs></svg>