<svg width="32" height="32" fill="none" xmlns="http://www.w3.org/2000/svg"><g clip-path="url(#clip0_580_1802)"><path fill-rule="evenodd" clip-rule="evenodd" d="M24 32H8a8 8 0 01-8-8V8a8 8 0 018-8h16a8 8 0 018 8v16a8 8 0 01-8 8z" fill="#E5ECF7"/><path fill-rule="evenodd" clip-rule="evenodd" d="M15 9h9a4.5 4.5 0 00.46-8.977C24.307.015 24.155 0 24 0H8a8 8 0 00-8 8v16A15 15 0 0115 9zm9 7a8 8 0 108 8V8a8 8 0 01-8 8z" fill="#E5ECF7"/><path d="M22.25 11a1.25 1.25 0 100-2.5 1.25 1.25 0 000 2.5z" fill="#1771E5"/><path fill-rule="evenodd" clip-rule="evenodd" d="M16 12a4 4 0 110 8 4 4 0 010-8zm0-2a6 6 0 110 12 6 6 0 010-12z" fill="#1771E5"/><path fill-rule="evenodd" clip-rule="evenodd" d="M26 11a5 5 0 00-5-5H11a5 5 0 00-5 5v10a5 5 0 005 5h10a5 5 0 005-5V11zm2 0a7 7 0 00-7-7H11a7 7 0 00-7 7v10a7 7 0 007 7h10a7 7 0 007-7V11z" fill="#1771E5"/></g><defs><clipPath id="clip0_580_1802"><path fill="#fff" d="M0 0h32v32H0z"/></clipPath></defs></svg>