<svg width="24" height="24" fill="none" xmlns="http://www.w3.org/2000/svg"><path d="M12.576 22.866c5.69 0 10.304-4.613 10.304-10.304 0-5.69-4.613-10.303-10.304-10.303-5.69 0-10.304 4.613-10.304 10.303s4.613 10.304 10.304 10.304z" fill="url(#paint0_linear_580_856)"/><path d="M12.576 22.866c5.69 0 10.304-4.613 10.304-10.304 0-5.69-4.613-10.303-10.304-10.303-5.69 0-10.304 4.613-10.304 10.303s4.613 10.304 10.304 10.304z" fill="url(#paint1_linear_580_856)"/><path d="M22.018 8.436a10.335 10.335 0 00-2.952-3.875l2.24 3.871.712.004z" fill="url(#paint2_linear_580_856)"/><path d="M22.651 14.721l-1.346-.278-2.328 4.026.88 1.383a10.284 10.284 0 002.794-5.131z" fill="url(#paint3_linear_580_856)"/><path d="M9.123 21.475l-.26.699a10.273 10.273 0 005.298.57l-.388-1.27h-4.65z" fill="url(#paint4_linear_580_856)"/><path d="M11.448 21.741c5.69 0 10.304-4.613 10.304-10.303 0-5.691-4.613-10.304-10.304-10.304-5.69 0-10.304 4.613-10.304 10.303 0 5.691 4.614 10.304 10.304 10.304z" fill="url(#paint5_linear_580_856)"/><path d="M10.539 16.692l-1.416 4.783a10.327 10.327 0 004.65 0l-1.416-4.783h-1.818zm1.818-10.51L13.773 1.4a10.327 10.327 0 00-2.325-.266c-.8 0-1.578.094-2.325.266l1.416 4.782h1.818zm4.097 3.416l4.851-1.166a10.29 10.29 0 00-2.328-4.026l-3.433 3.616.91 1.576zm-10.012 3.68l-4.851 1.165a10.29 10.29 0 002.328 4.026l3.433-3.616-.91-1.575zm.91-5.256L3.919 4.406a10.29 10.29 0 00-2.328 4.026l4.851 1.166.91-1.576zm9.102 5.256l-.91 1.575 3.433 3.616a10.29 10.29 0 002.328-4.026l-4.851-1.165z" fill="#EFEFEF"/><path d="M11.448 18.486a7.04 7.04 0 100-14.081 7.04 7.04 0 000 14.08z" fill="url(#paint6_linear_580_856)"/><path d="M18.489 11.445a7.04 7.04 0 10-7.041 7.04c-3.828-.03-6.984-3.21-6.956-7.04a6.963 6.963 0 012.053-4.903 6.941 6.941 0 014.903-2.01c3.815-.025 6.953 3.097 6.955 6.913a6.991 6.991 0 01-2.021 4.934 7.027 7.027 0 01-4.934 2.107 7.04 7.04 0 007.04-7.04z" fill="url(#paint7_linear_580_856)"/><path opacity=".5" d="M7.267 7.001a1.823 1.823 0 100-3.645 1.823 1.823 0 000 3.645z" fill="url(#paint8_radial_580_856)"/><path d="M7.428 5.368l.193.643-.33-.585-.495.921.282-1.008-.643.194.585-.33-.922-.495 1.008.281-.193-.643.33.585.495-.921-.282 1.008.643-.194-.584.33.92.495-1.007-.281z" fill="url(#paint9_radial_580_856)"/><path d="M11.448 16.53a5.084 5.084 0 100-10.17 5.084 5.084 0 000 10.17z" fill="url(#paint10_linear_580_856)"/><path d="M7.448 8.305a4.905 4.905 0 108 0 5.084 5.084 0 11-9.085 3.14c0-1.184.405-2.276 1.085-3.14z" fill="url(#paint11_linear_580_856)"/><path d="M21.752 11.437c0-5.69-4.613-10.303-10.304-10.303-5.69 0-10.304 4.613-10.304 10.303 0 5.691 4.613 10.304 10.304 10.304-5.7-.089-10.193-4.78-10.13-10.304.018-2.654 1.102-5.278 2.99-7.14a10.114 10.114 0 017.14-2.937 10.118 10.118 0 017.14 2.937c1.889 1.862 2.97 4.486 2.99 7.14a10.194 10.194 0 01-2.923 7.208c-1.858 1.925-4.507 3.054-7.207 3.096 5.69 0 10.304-4.613 10.304-10.304z" fill="url(#paint12_linear_580_856)"/><path d="M6.476 11.445c.047-2.662 2.277-4.89 4.972-4.858 2.71-.029 4.925 2.211 4.97 4.858a4.998 4.998 0 01-1.398 3.572 5.08 5.08 0 01-3.567 1.512 5.084 5.084 0 10-.01 0 5.081 5.081 0 01-3.567-1.512 4.996 4.996 0 01-1.4-3.572z" fill="url(#paint13_linear_580_856)"/><path d="M7.976 16.286c2.174 1.182 5.261 1.181 7.435 0-1.757 1.824-5.674 1.828-7.435 0z" fill="url(#paint14_linear_580_856)"/><path opacity=".6" d="M13.23 18.373a2.5 2.5 0 100-5 2.5 2.5 0 000 5z" fill="url(#paint15_radial_580_856)"/><defs><linearGradient id="paint0_linear_580_856" x1="2.272" y1="12.562" x2="22.88" y2="12.562" gradientUnits="userSpaceOnUse"><stop stop-color="#FF7C00"/><stop offset=".341" stop-color="#F85C03"/><stop offset=".641" stop-color="#FF7C00"/><stop offset="1" stop-color="#F85A03"/></linearGradient><linearGradient id="paint1_linear_580_856" x1="2.272" y1="12.562" x2="22.88" y2="12.562" gradientUnits="userSpaceOnUse"><stop stop-color="#F7CE52"/><stop offset=".832" stop-color="#BFA249"/></linearGradient><linearGradient id="paint2_linear_580_856" x1="20.096" y1="6.796" x2="20.872" y2="6.279" gradientUnits="userSpaceOnUse"><stop stop-color="#EFEFEF"/><stop offset="1" stop-color="#96A1B2"/></linearGradient><linearGradient id="paint3_linear_580_856" x1="21.718" y1="17.75" x2="19.463" y2="15.495" gradientUnits="userSpaceOnUse"><stop stop-color="#EFEFEF"/><stop offset="1" stop-color="#96A1B2"/></linearGradient><linearGradient id="paint4_linear_580_856" x1="11.511" y1="22.786" x2="11.511" y2="21.155" gradientUnits="userSpaceOnUse"><stop stop-color="#EFEFEF"/><stop offset="1" stop-color="#96A1B2"/></linearGradient><linearGradient id="paint5_linear_580_856" x1="11.448" y1="1.134" x2="11.448" y2="21.741" gradientUnits="userSpaceOnUse"><stop stop-color="#F7CE52"/><stop offset=".832" stop-color="#FFC71C"/></linearGradient><linearGradient id="paint6_linear_580_856" x1="11.448" y1="19.339" x2="11.448" y2="6.197" gradientUnits="userSpaceOnUse"><stop stop-color="#F7CE52"/><stop offset=".832" stop-color="#ECB40D"/></linearGradient><linearGradient id="paint7_linear_580_856" x1="4.407" y1="11.445" x2="18.489" y2="11.445" gradientUnits="userSpaceOnUse"><stop stop-color="#fff" stop-opacity="0"/><stop offset=".442" stop-color="#fff"/><stop offset=".641" stop-color="#fff" stop-opacity=".999"/><stop offset="1" stop-color="#fff" stop-opacity="0"/></linearGradient><linearGradient id="paint10_linear_580_856" x1="11.448" y1="14.695" x2="11.448" y2="4.202" gradientUnits="userSpaceOnUse"><stop stop-color="#EFEFEF"/><stop offset="1" stop-color="#96A1B2"/></linearGradient><linearGradient id="paint11_linear_580_856" x1="11.448" y1="11.702" x2="11.448" y2="18.157" gradientUnits="userSpaceOnUse"><stop stop-color="#96A1B2"/><stop offset=".18" stop-color="#9DA7B7"/><stop offset=".434" stop-color="#AFB7C3"/><stop offset=".731" stop-color="#CDD2D8"/><stop offset="1" stop-color="#EFEFEF"/></linearGradient><linearGradient id="paint12_linear_580_856" x1="1.144" y1="11.438" x2="21.752" y2="11.438" gradientUnits="userSpaceOnUse"><stop stop-color="#fff" stop-opacity="0"/><stop offset=".442" stop-color="#fff"/><stop offset=".641" stop-color="#fff" stop-opacity=".999"/><stop offset="1" stop-color="#fff" stop-opacity="0"/></linearGradient><linearGradient id="paint13_linear_580_856" x1="6.363" y1="11.445" x2="16.532" y2="11.445" gradientUnits="userSpaceOnUse"><stop stop-color="#fff" stop-opacity="0"/><stop offset=".442" stop-color="#fff"/><stop offset=".641" stop-color="#fff" stop-opacity=".999"/><stop offset="1" stop-color="#fff" stop-opacity="0"/></linearGradient><linearGradient id="paint14_linear_580_856" x1="15.411" y1="16.971" x2="7.976" y2="16.971" gradientUnits="userSpaceOnUse"><stop stop-color="#fff" stop-opacity="0"/><stop offset=".323" stop-color="#fff"/><stop offset=".687" stop-color="#fff" stop-opacity=".999"/><stop offset="1" stop-color="#fff" stop-opacity="0"/></linearGradient><radialGradient id="paint8_radial_580_856" cx="0" cy="0" r="1" gradientUnits="userSpaceOnUse" gradientTransform="rotate(21.95 -9.672 21.302) scale(1.82406)"><stop offset=".306" stop-color="#fff" stop-opacity=".999"/><stop offset="1" stop-color="#fff" stop-opacity="0"/></radialGradient><radialGradient id="paint9_radial_580_856" cx="0" cy="0" r="1" gradientUnits="userSpaceOnUse" gradientTransform="rotate(21.95 -9.672 21.303) scale(1.26044)"><stop offset=".306" stop-color="#fff"/><stop offset="1" stop-color="#fff" stop-opacity="0"/></radialGradient><radialGradient id="paint15_radial_580_856" cx="0" cy="0" r="1" gradientUnits="userSpaceOnUse" gradientTransform="matrix(-2.50008 0 0 -2.50007 13.23 15.873)"><stop offset=".306" stop-color="#fff" stop-opacity=".999"/><stop offset="1" stop-color="#fff" stop-opacity="0"/></radialGradient></defs></svg>