<svg width="32" height="32" fill="none" xmlns="http://www.w3.org/2000/svg"><g clip-path="url(#clip0_580_1788)" fill-rule="evenodd" clip-rule="evenodd"><path d="M24 32H8a8 8 0 01-8-8V8a8 8 0 018-8h16a8 8 0 018 8v16a8 8 0 01-8 8z" fill="#E5ECF7"/><path d="M15 9h9a4.5 4.5 0 00.46-8.977C24.307.015 24.155 0 24 0H8a8 8 0 00-8 8v16A15 15 0 0115 9zm9 7a8 8 0 108 8V8a8 8 0 01-8 8z" fill="#E5ECF7"/><path d="M22.54 8.516a1.5 1.5 0 012.055 1.614l-2.218 14.42a1.5 1.5 0 01-2.372.98l-6.541-4.82a1 1 0 01-.094-1.532l6.104-5.764a.25.25 0 00-.308-.391l-8.07 5.262a3.001 3.001 0 01-2.366.398l-3.786-.947a1 1 0 01-.14-1.895L22.54 8.517z" fill="#1771E5"/></g><defs><clipPath id="clip0_580_1788"><path fill="#fff" d="M0 0h32v32H0z"/></clipPath></defs></svg>