<svg width="32" height="32" fill="none" xmlns="http://www.w3.org/2000/svg"><g clip-path="url(#clip0_580_1573)"><path fill-rule="evenodd" clip-rule="evenodd" d="M24 32H8a8 8 0 01-8-8V8a8 8 0 018-8h16a8 8 0 018 8v16a8 8 0 01-8 8z" fill="#E5ECF7"/><path fill-rule="evenodd" clip-rule="evenodd" d="M15 9h9a4.5 4.5 0 00.46-8.977C24.307.015 24.155 0 24 0H8a8 8 0 00-8 8v16A15 15 0 0115 9zm9 7a8 8 0 108 8V8a8 8 0 01-8 8z" fill="#E5ECF7"/><path fill-rule="evenodd" clip-rule="evenodd" d="M21.672 19.5l2.828-2.828V7.5h-13v12h4v3l3-3h3.172zm-1.586 4.414a2.002 2.002 0 01-1.414.586H15.5l-3.146 3.146a.5.5 0 01-.854-.353V24.5h-4a1 1 0 01-1-1V10.329a1.999 1.999 0 01.586-1.415l2.828-2.828a2.001 2.001 0 011.415-.586H25.5a1 1 0 011 1v10.586a1 1 0 01-.293.707l-6.121 6.121z" fill="#1771E5"/><path d="M16 10h2v5h-2v-5zm4.5 0h2v5h-2v-5z" fill="#1771E5"/></g><defs><clipPath id="clip0_580_1573"><path fill="#fff" d="M0 0h32v32H0z"/></clipPath></defs></svg>