<svg width="32" height="32" fill="none" xmlns="http://www.w3.org/2000/svg"><g clip-path="url(#clip0_580_1587)" fill-rule="evenodd" clip-rule="evenodd"><path d="M24 32H8a8 8 0 01-8-8V8a8 8 0 018-8h16a8 8 0 018 8v16a8 8 0 01-8 8z" fill="#E5ECF7"/><path d="M15 9h9a4.5 4.5 0 00.46-8.977C24.307.015 24.155 0 24 0H8a8 8 0 00-8 8v16A15 15 0 0115 9zm9 7a8 8 0 108 8V8a8 8 0 01-8 8z" fill="#E5ECF7"/><path d="M26.559 10.902c.162-.509 0-.878-.718-.878H23.46a1.053 1.053 0 00-1.04.67 20.29 20.29 0 01-2.939 4.88c-.555.556-.809.741-1.11.741-.162 0-.37-.185-.37-.694v-4.742c0-.601-.186-.879-.694-.879h-3.653a.574.574 0 00-.601.555c0 .579.856.717.948 2.337v3.515c0 .764-.139.903-.44.903-.81 0-3.101-2.984-4.281-6.385-.232-.67-.462-.925-1.064-.925H5.81c-.694 0-.81.324-.81.67 0 1.53 4.319 12.308 11.288 12.308 1.526 0 1.712-.347 1.712-.925V19.9c0-.695.139-.81.625-.81 1.24 0 3.485 2.77 4.065 3.351a1.473 1.473 0 001.116.558h2.383c.694 0 .935-.421.75-1.092-.428-1.38-3.413-4.219-3.572-4.436-.348-.463-.255-.648 0-1.065-.024 0 2.891-4.117 3.192-5.505z" fill="#1771E5"/></g><defs><clipPath id="clip0_580_1587"><path fill="#fff" d="M0 0h32v32H0z"/></clipPath></defs></svg>