<svg width="32" height="32" fill="none" xmlns="http://www.w3.org/2000/svg"><g clip-path="url(#clip0_580_1581)" fill-rule="evenodd" clip-rule="evenodd"><path d="M24 32H8a8 8 0 01-8-8V8a8 8 0 018-8h16a8 8 0 018 8v16a8 8 0 01-8 8z" fill="#E5ECF7"/><path d="M15 9h9a4.5 4.5 0 00.46-8.977C24.307.015 24.155 0 24 0H8a8 8 0 00-8 8v16A15 15 0 0115 9zm9 7a8 8 0 108 8V8a8 8 0 01-8 8z" fill="#E5ECF7"/><path d="M12.524 8.938A1 1 0 0011 9.79v12.42a1 1 0 001.524.852c2.55-1.568 7.64-4.7 10.092-6.21a1 1 0 000-1.703l-10.092-6.21z" fill="#1771E5"/></g><defs><clipPath id="clip0_580_1581"><path fill="#fff" d="M0 0h32v32H0z"/></clipPath></defs></svg>