<svg width="150" height="50" fill="none" xmlns="http://www.w3.org/2000/svg"><g clip-path="url(#clip0_580_1772)"><path d="M5.159 32.236a307.54 307.54 0 01-.207-11.097c3.971 0 7.755.077 11.25.222h.384v-4.419h-.384c-3.284.188-7.067.289-11.25.294 0-3.924-.048-7.135-.135-9.549 4.88 0 9.563.097 13.943.294h.36l.24-4.409H0v.39c.23 4.326.346 9.423.346 15.149C.366 25.236.25 30.88 0 35.923v.385h20.529l.173-4.462-.4.024c-4.773.231-9.864.341-15.143.366zm31.961-8.89c.962-1.01 2.558-2.937 4.693-5.726 3.38-4.457 3.38-4.783 3.38-5v-.365h-5.385v.365c0 .164-.183.851-1.875 3.74a41.686 41.686 0 01-2.919 4.472c-.846-1.106-1.889-2.659-3.105-4.625-1.78-2.885-1.923-3.471-1.923-3.587v-.365h-5.981v.365c0 .226 0 .568 3.317 4.923 2.067 2.721 3.664 4.712 4.74 5.923a87.38 87.38 0 00-5.552 6.856c-3.587 4.774-3.587 5.351-3.587 5.62v.366h5.673v-.366c0-.192.212-1.005 2.164-4.394 1.346-2.341 2.437-4.11 3.245-5.255 1.14 1.548 2.461 3.462 3.942 5.673 2.115 3.193 2.289 3.846 2.293 3.971v.366h6.063v-.365c0-.24 0-.688-3.62-5.525-2.298-3.076-4.183-5.456-5.563-7.067zm31.539 4.639c0-.659.033-2.01.11-4.024.072-2.02.11-3.428.11-4.197 0-3.005-.85-5.174-2.528-6.443-1.678-1.27-3.99-1.88-6.971-1.88a31.283 31.283 0 00-8.572 1.058l-.236.067-.51 4.164.52-.135c2.45-.634 4.97-.958 7.5-.961a8.954 8.954 0 014.678.961c1.004.64 1.442 1.846 1.442 3.712.008.33-.005.661-.038.99-5.731.11-9.573.923-11.74 2.48a7.515 7.515 0 00-3.366 6.376 6.1 6.1 0 002.173 5.01 7.87 7.87 0 005.096 1.74c2.922.14 5.8-.76 8.12-2.543.044.606.139 1.207.284 1.798l.072.288 4.582-.173-.082-.418a43.025 43.025 0 01-.644-7.87zm-11.097-2.467c2.15-.5 4.353-.726 6.558-.673 0 1.841.043 3.914.116 6.164a9.544 9.544 0 01-6.063 1.817c-2.923 0-4.327-.962-4.327-2.971-.043-2.148 1.193-3.567 3.717-4.336zm32.851 10.79h5.26v-.37c-.062-5.37-.096-9.481-.096-12.222 0-.307 0-.961.048-1.827.034-.932.048-1.538.048-1.855 0-3.178-.798-5.433-2.37-6.731s-3.75-1.885-6.539-1.885a11.554 11.554 0 00-7.692 3.092l-.442-2.846-5.072.745.077.384a56.68 56.68 0 011.072 11.058c0 2.466-.14 6.524-.419 12.058v.384h5.231v-.375c-.062-6.375-.096-12.413-.096-17.942a9.298 9.298 0 016.058-2.332 5.97 5.97 0 014.134 1.293c.948.861 1.414 2.496 1.414 4.895 0 5.053-.178 9.783-.539 14.062l-.077.414z" fill="#000"/><path d="M42.072 46.5c-.168-1.966-.255-3.365-.255-4.12v-.202H39.99v.202a11.836 11.836 0 01-.961 2.956c-.433 1.068-.683 1.75-.827 2.203-.125-.448-.346-1.13-.73-2.188a12.41 12.41 0 01-.876-2.971v-.202h-1.875v.202a38.912 38.912 0 01-.375 4.13c-.384 3-.384 3.043-.384 3.077v.201h1.355v-.201c0-.664.068-1.77.202-3.289.072-.822.125-1.49.164-2.02.14.482.48 1.443 1.005 2.857.348.781.609 1.599.778 2.437v.202h1.159v-.202c.188-.83.467-1.636.832-2.404.426-1.06.8-2.069 1.12-3.024.034.481.077 1.092.135 1.86.11 1.54.168 2.741.168 3.554v.202h1.442v-.202c-.014-.005-.014-.077-.25-3.058zm11.837-3.125h.216l-.038-1.202H42.788l-.043 1.202h.221a52.199 52.199 0 012.096-.067v2.49c0 1.26 0 2.524-.062 3.774v.212h1.442v-.207a129.292 129.292 0 01-.057-3.779v-2.49h4.096v2.49c0 1.197 0 2.471-.053 3.779v.207h1.442v-.212c-.043-1.25-.067-2.514-.067-3.774 0-.961 0-1.808.029-2.49.505 0 1.206.024 2.077.067zm12.086 2.846c0-1.086 0-2.37.067-3.817v-.207H64.62v.207c.043 1.072.063 2.322.063 3.711v2.515h-2.178v-2.606c0-1.38 0-2.6.053-3.62v-.207h-1.443v.207c.039 1.072.058 2.322.058 3.711v2.515h-2.197v-2.606c0-1.38 0-2.596.062-3.62v-.207h-1.442v.207c.043 1.442.063 2.711.063 3.817 0 1.106 0 2.188-.063 3.366v.211h8.433v-.212c-.01-1.211-.034-2.34-.034-3.365zm7.221 2.635a10.548 10.548 0 00-1.01-2.356 2.288 2.288 0 00-.845-.697c.325-.214.604-.49.822-.813.361-.597.63-1.245.798-1.923.096-.288.158-.48.197-.586l.11-.274h-1.346l-.057.081a1.283 1.283 0 00-.198.5 3.933 3.933 0 01-.84 2.034 1.924 1.924 0 01-1.414.558h-.308c0-.962 0-1.923.053-2.971v-.207h-1.442v.211c.052.962.076 2.111.076 3.4a81.73 81.73 0 01-.076 3.764v.211h1.442v-.211a85.937 85.937 0 01-.053-3.077h.308a1.895 1.895 0 011.442.48c.457.664.763 1.419.9 2.212.048.164.106.324.172.481l.053.115h1.563l-.097-.269-.25-.663zm4.47-6.803a3.5 3.5 0 00-2.552 1.115 4.105 4.105 0 00-1.097 2.981 3.77 3.77 0 001.049 2.788 3.394 3.394 0 002.447 1.039 3.476 3.476 0 002.553-1.13 4.116 4.116 0 001.1-2.99 3.768 3.768 0 00-1.048-2.789 3.364 3.364 0 00-2.452-1.014zm0 6.774a2.144 2.144 0 01-1.581-.716 2.885 2.885 0 01-.697-2.072 3.106 3.106 0 01.658-2.068 1.89 1.89 0 011.443-.75 2.105 2.105 0 011.577.721c.503.566.764 1.307.725 2.063a3.13 3.13 0 01-.653 2.062 1.869 1.869 0 01-1.472.76zm9.949-6.63h-3.366l-.024.168a10.795 10.795 0 01-.452 1.774c-.11.342-.23.673-.365 1.01-.135.337-.274.678-.418 1-.145.322-.289.63-.438.913a8.83 8.83 0 01-.433.746 3.967 3.967 0 01-.384.514c-.135.144-.207.173-.236.178l-.168.038.077 1.366h.207c.254-.03.494-.135.687-.303.23-.194.434-.417.606-.663.21-.29.4-.594.567-.91a18.05 18.05 0 00.971-2.177 26.838 26.838 0 00.65-2.005c.052-.197.096-.375.124-.524h1v2.664c0 1.375 0 2.596-.057 3.615v.212h1.442V49.6a105.182 105.182 0 01-.067-3.808c0-1.067.024-2.197.067-3.365l.01-.23zm6.562 3.726a23.655 23.655 0 01-1.346-3.529v-.197h-1.678v.192a23.882 23.882 0 01-1.409 3.577c-1.442 3.366-1.442 3.52-1.442 3.61v.203h1.52v-.202c.127-.728.336-1.44.624-2.12h2.885c.287.682.502 1.393.64 2.12v.202h1.567v-.202c.014-.106.014-.341-1.36-3.654zm-1.24.409h-2.092a86.473 86.473 0 001.068-2.673c.144.437.442 1.22 1.024 2.673z" fill="#999"/><path d="M136.644 45.923L109.827 50l-6.135-40.053 17.914-2.716-.553 4.298-3.399.279-.236 1.976-3.442.288-.5 3.962 3.433-.289-1.443 11.226-3.581.298-.534 4.26 6.937-.582-.552 4.303-.265 2.01 2.019.26 16.491 2.11.663 4.293z" fill="url(#paint0_linear_580_1772)"/><path d="M149.707 3.221l-4.846 37.5-9.198-1.173L119.75 37.5l.611-4.736 2.682-.216 10.096-.841a5.533 5.533 0 003.625-1.385 6.014 6.014 0 001.443-3.461l.404-3.097a3.872 3.872 0 00-.962-3.485 3.742 3.742 0 00-2.923-1.034h-.13l.077-.298L139 13.918l.481-3.793-12.731 1.058-.361 2.884 1.198 1.25 5.687-.48-.043.149-4.327 5.024-.481 3.49 3.923-.327c1.289-.091 1.827.563 1.625 2.005l-.053.418a2.468 2.468 0 01-.62 1.442 2.634 2.634 0 01-1.572.524l-10.813.952 2.784-21.605.899-6.909 25.111 3.221z" fill="url(#paint1_linear_580_1772)"/></g><defs><linearGradient id="paint0_linear_580_1772" x1="120.168" y1="7.231" x2="120.168" y2="50" gradientUnits="userSpaceOnUse"><stop stop-color="#F4D682"/><stop offset=".4" stop-color="#ECC765"/><stop offset=".75" stop-color="#E7BD53"/><stop offset="1" stop-color="#E5B94C"/></linearGradient><linearGradient id="paint1_linear_580_1772" x1="134.728" y1="0" x2="134.728" y2="40.721" gradientUnits="userSpaceOnUse"><stop stop-color="#F4D682"/><stop offset=".4" stop-color="#ECC765"/><stop offset=".75" stop-color="#E7BD53"/><stop offset="1" stop-color="#E5B94C"/></linearGradient><clipPath id="clip0_580_1772"><path fill="#fff" d="M0 0h149.707v50H0z"/></clipPath></defs></svg>